SplineFontDB: 3.0
FontName: Pacifico-Regular
FullName: Pacifico Regular
FamilyName: Pacifico
Weight: Regular
Copyright: Copyright (c) 2011-13 by vernon adams. All rights reserved.
Version: 2
ItalicAngle: 0
UnderlinePosition: 0
UnderlineWidth: 0
Ascent: 1638
Descent: 410
UFOAscent: 2881
UFODescent: -940
LayerCount: 2
Layer: 0 0 "Back"  1
Layer: 1 0 "Fore"  0
FSType: 0
OS2Version: 0
OS2_WeightWidthSlopeOnly: 0
OS2_UseTypoMetrics: 1
CreationTime: 1393372403
ModificationTime: 1393372662
PfmFamily: 17
TTFWeight: 400
TTFWidth: 5
LineGap: 0
VLineGap: 0
OS2TypoAscent: 0
OS2TypoAOffset: 1
OS2TypoDescent: 0
OS2TypoDOffset: 1
OS2TypoLinegap: 0
OS2WinAscent: 0
OS2WinAOffset: 1
OS2WinDescent: 0
OS2WinDOffset: 1
HheadAscent: 0
HheadAOffset: 1
HheadDescent: 0
HheadDOffset: 1
OS2Vendor: 'NeWT'
Lookup: 4 0 0 "'frac' Diagonal Fractions in Latin lookup 0"  {"'frac' Diagonal Fractions in Latin lookup 0 subtable"  } ['frac' ('latn' <'dflt' > 'DFLT' <'dflt' > ) ]
Lookup: 6 0 0 "'ordn' Ordinals in Latin lookup 1"  {"'ordn' Ordinals in Latin lookup 1 contextual 0"  "'ordn' Ordinals in Latin lookup 1 contextual 1"  } ['ordn' ('latn' <'dflt' > 'DFLT' <'dflt' > ) ]
Lookup: 1 0 0 "Single Substitution lookup 2"  {"Single Substitution lookup 2 subtable"  } []
Lookup: 1 0 0 "Single Substitution lookup 3"  {"Single Substitution lookup 3 subtable"  } []
Lookup: 1 0 0 "'init' Initial Forms in Latin lookup 4"  {"'init' Initial Forms in Latin lookup 4 subtable"  } ['init' ('latn' <'dflt' > 'DFLT' <'dflt' > ) ]
Lookup: 1 0 0 "'fina' Terminal Forms in Latin lookup 5"  {"'fina' Terminal Forms in Latin lookup 5 subtable"  } ['fina' ('latn' <'dflt' > 'DFLT' <'dflt' > ) ]
Lookup: 4 0 0 "'dlig' Discretionary Ligatures in Latin lookup 6"  {"'dlig' Discretionary Ligatures in Latin lookup 6 subtable"  } ['dlig' ('latn' <'dflt' > 'DFLT' <'dflt' > ) ]
MarkAttachClasses: 1
DEI: 91125
ChainSub2: coverage "'ordn' Ordinals in Latin lookup 1 contextual 1"  0 0 0 1
 1 1 0
  Coverage: 3 O o

StartChar: A
Encoding: 33 65 0
Width: 1970
VWidth: 0
Flags: W
PickledData: "(dp1
S'com.typemytype.robofont.layerData'
p2
(dp3
s."
AnchorPoint: "ogonek" 1593 0 basechar 0
LayerCount: 2
Fore
SplineSet
812 -175 m 256
 1070 -175 1315 51 1389 253 c 257
 1389 253 1385 97 1385 70 c 256
 1385 -53 1449 -163 1573 -163 c 256
 1710 -163 1878 -78 1964 23 c 256
 1977 39 1983 58 1983 77 c 256
 1983 132 1947 184 1903 184 c 256
 1894 184 1885 183 1872 172 c 256
 1811 118 1697 46 1646 46 c 256
 1615 46 1598 78 1598 152 c 256
 1598 220 1613 324 1645 472 c 258
 1848 1398 l 258
 1850 1405 1850 1412 1850 1418 c 256
 1850 1484 1776 1528 1711 1528 c 256
 1661 1526 1625 1506 1615 1459 c 258
 1428 634 l 258
 1358 324 1151 49 849 49 c 256
 567 49 435 219 435 580 c 256
 435 1598 1374 2104 2066 1609 c 257
 2089 1591 2113 1583 2135 1583 c 256
 2187 1583 2230 1627 2230 1681 c 256
 2230 1706 2222 1739 2191 1768 c 256
 1479 2434 122 1815 150 577 c 256
 162 66 374 -175 812 -175 c 256
EndSplineSet
Substitution2: "Single Substitution lookup 2 subtable" ordfeminine
EndChar

StartChar: B
Encoding: 34 66 13
Width: 1603
VWidth: 0
Flags: W
PickledData: "(dp1
S'com.typemytype.robofont.layerData'
p2
(dp3
s."
LayerCount: 2
Fore
SplineSet
401 -271 m 256
 928 -271 1475 92.1516 1475 473 c 256
 1475 680.973 1270 831 1053 853 c 257
 1052.65 859.957 l 257
 1457.09 895.819 1643.99 1144.48 1669.04 1329.48 c 256
 1709.78 1632.14 1411 1946 818 1946 c 256
 341 1946 69 1774 -118 1600 c 256
 -204 1519 -74 1337 82 1470 c 256
 265 1627 465 1735 829 1735 c 256
 1212 1735 1360 1549.46 1360 1355 c 256
 1360 1201.73 1253 944 809 950 c 258
 717 951 l 258
 644 952 588 936 588 876 c 256
 587 717 1193 843.828 1193 457 c 256
 1193 203.35 832 -85 393 -85 c 256
 306 -85 308 -57 308 7 c 256
 308 429 390 1138 579 1391 c 257
 547 1439 506 1464 455 1464 c 256
 69 1464 4 314 4 -95 c 256
 4 -205 158 -271 401 -271 c 256
EndSplineSet
EndChar

StartChar: C
Encoding: 35 67 15
Width: 1648
VWidth: 0
Flags: W
PickledData: "(dp1
S'com.typemytype.robofont.layerData'
p2
(dp3
s."
LayerCount: 2
Fore
SplineSet
775 -275 m 256
 1153 -275 1593 -14 1707 331 c 256
 1709 337 1710 342 1710 347 c 256
 1710 383 1668 405 1639 405 c 256
 1626 405 1614 402 1604 393 c 256
 1391 185 1191 -51 838 -51 c 256
 588 -51 429 142 432 502 c 256
 436 952 739 1618 1176 1618 c 256
 1320 1618 1400 1536 1400 1394 c 256
 1400 1184 1238 996.999 1033 996.999 c 256
 932 996.999 863 985.999 863 907 c 256
 863 795 923 786 1049 786 c 256
 1356 786 1624 1099 1624 1413 c 256
 1624 1667 1459 1842 1211 1842 c 256
 603 1842 155 1136 144 482 c 256
 135 -61 458 -275 775 -275 c 256
EndSplineSet
EndChar

StartChar: D
Encoding: 36 68 21
Width: 1574
VWidth: 0
Flags: W
PickledData: "(dp1
S'com.typemytype.robofont.layerData'
p2
(dp3
s."
AnchorPoint: "mid" 382 809 basechar 0
LayerCount: 2
Fore
SplineSet
513 -139 m 256
 947 -139 1556 240 1570 1038 c 256
 1578 1538 1142 1796 594 1806 c 256
 322 1811 134 1715 -16 1540 c 256
 -32 1521 -108 1392 -110 1299 c 256
 -111 1257 -91 1204 -37 1204 c 256
 27 1204 105 1345 158 1400 c 256
 292 1540 468 1580 601 1577 c 256
 998 1567 1331 1346 1325 1019 c 256
 1318 586 983 49 484 49 c 256
 395 49 389 90 391 179 c 256
 397 545 488 1110 660 1336 c 257
 628 1391 588 1418 539 1418 c 256
 500 1418 457 1402 409 1369 c 257
 201 1071 136 511 128 14 c 256
 127 -28 135 -41 165 -55 c 256
 257 -98 377 -139 513 -139 c 256
EndSplineSet
EndChar

StartChar: E
Encoding: 37 69 28
Width: 1618
VWidth: 0
Flags: W
PickledData: "(dp1
S'com.typemytype.robofont.layerData'
p2
(dp3
s."
AnchorPoint: "ogonek" 947 -256 basechar 0
LayerCount: 2
Fore
SplineSet
740 -303 m 256
 1130 -303 1686 -57 1900 210 c 256
 1919 233 1927 260 1927 287 c 256
 1927 349 1885 408 1831 408 c 256
 1806 408 1778 394 1749 361 c 256
 1566 141 1086 -62 749 -62 c 256
 466 -62 417 125 417 265 c 256
 417 533 716 774 1057 774 c 256
 1166 774 1219 845 1219 912 c 256
 1219 963 1188 1012 1127 1025 c 256
 792 1099 653 1209 653 1450 c 256
 653 1717 932 1861 1202 1861 c 256
 1347 1861 1489 1819 1583 1733 c 257
 1503 1545 l 258
 1489 1512 1482 1485 1482 1464 c 256
 1482 1425 1507 1407 1565 1407 c 256
 1628 1407 1812 1420 1812 1647 c 256
 1812 1925 1532 2060 1219 2060 c 256
 820 2060 367 1842 367 1428 c 256
 367 1125 503 986 884 935 c 257
 486 925 119 588 119 233 c 256
 119 -131 318 -303 740 -303 c 256
EndSplineSet
EndChar

StartChar: Eng
Encoding: 265 330 37
Width: 1575
VWidth: 0
Flags: W
LayerCount: 2
Fore
SplineSet
1166 98 m 257
 1242 316 l 257
 1424 808 1622 1298 1617 1597 c 256
 1614 1748 1516 1864 1339 1878 c 256
 849 1918 604 1405 442 971 c 257
 505 1222 557 1485 555 1619 c 256
 552 1782 418 1879 278 1867 c 256
 46 1847 -122 1670 -212 1478 c 256
 -279 1334 -63 1248 -51 1283 c 256
 -4 1416 155 1672 257 1671 c 256
 327 1670 328 1532 329 1504 c 256
 335 1159 40 359 -124 -48 c 256
 -124 -49 -55 -122 37 -122 c 256
 154 -122 173 -28 211 65 c 256
 522 839 847 1624 1240 1624 c 256
 1320 1624 1354 1564 1355 1497 c 256
 1358 1292 1163 823 1011 316 c 257
 896 -5 l 257
 229 -351 -58 -900 330 -926 c 256
 577 -943 895 -675 1126 -75 c 257
 1325 44 1468 77 1616 153 c 256
 1754 224 1724 334 1629 310 c 256
 1540 288 1328 193 1166 98 c 257
847 -168 m 257
 765 -382 569 -768 360 -768 c 256
 218 -768 402 -406 847 -168 c 257
EndSplineSet
EndChar

StartChar: Euro
Encoding: 461 8364 40
Width: 1857
VWidth: 0
Flags: W
LayerCount: 2
Fore
SplineSet
700 -192 m 256
 1025 -192 1275 -25 1455 131 c 256
 1481 153 1504 181 1504 221 c 256
 1504 277 1460 321 1405 321 c 256
 1387 321 1368 318 1353 305 c 256
 1211 187 1004 62 752 62 c 257
 628 200 384 217 384 472 c 258
 384 492 l 258
 384 498 384 505 385 512 c 257
 768 512 l 258
 851 512 896 548 896 628 c 256
 896 682 853 704 801 704 c 258
 413 704 l 257
 423 749 434 790 448 832 c 257
 833 832 l 258
 916 832 961 868 961 948 c 256
 961 1002 918 1024 866 1024 c 258
 521 1024 l 257
 553 1096 590 1164 632 1230 c 256
 724 1376 866 1568 1088 1568 c 256
 1230 1568 1333 1527 1333 1390 c 256
 1333 1282 1269 1200 1269 1108 c 258
 1269 1102 l 258
 1269 1050 1359 1026 1412 1026 c 256
 1427 1026 1444 1036 1463 1058 c 256
 1526 1132 1572 1268 1572 1405 c 256
 1572 1669 1397 1792 1123 1792 c 256
 1056 1792 991.999 1782 929 1762 c 256
 582 1653 363 1343 223 1024 c 257
 96.9999 1024 l 258
 35 1024 0 999.999 0 941 c 256
 0 875 29 832 96.9999 832 c 258
 153 832 l 257
 140 790 129 749 121 704 c 257
 32 704 l 258
 -30 704 -65 680 -65 621 c 256
 -65 555 -36 512 32 512 c 258
 96.9999 512 l 257
 95.9999 507 95.9999 502 95.9999 497 c 258
 95.9999 482 l 258
 95.9999 73 297 -192 700 -192 c 256
EndSplineSet
EndChar

StartChar: F
Encoding: 38 70 41
Width: 1376
VWidth: 0
Flags: W
PickledData: "(dp1
S'com.typemytype.robofont.layerData'
p2
(dp3
s."
LayerCount: 2
Fore
SplineSet
293 -198 m 256
 768 -198 822 194 982.999 749 c 257
 1099 749 1230 768 1344 768 c 256
 1385 768 1408 815 1408 864 c 256
 1408 918 1400 960 1344 960 c 258
 1023 960 l 257
 1123 1341 1165 1592 1199 1794 c 257
 1476 1824 1707 1788 2030 1758 c 256
 2093 1752 2125 1816 2125 1878 c 256
 2125 2046 1466 2018 1293 2018 c 256
 160 2018 -196 1264 114 816 c 256
 181 719 449 728 385 812 c 256
 97 1191 341 1694 984 1774 c 257
 948 1644 837 1191 771 942 c 257
 703 933 556 919 556 832 c 256
 556 771 620 749 681 749 c 258
 724 749 l 257
 614 309 572 26 397 26 c 256
 277 26 202 97 89 97 c 256
 23 97 -21 18 -21 -47 c 256
 -21 -164 173 -198 293 -198 c 256
EndSplineSet
EndChar

StartChar: G
Encoding: 39 71 43
Width: 2077
VWidth: 0
Flags: W
PickledData: "(dp1
S'com.typemytype.robofont.layerData'
p2
(dp3
s."
LayerCount: 2
Fore
SplineSet
844 -909 m 256
 1463 -1141 1811 -738 2011 349 c 256
 2056 592 1993 642 1639 642 c 256
 1549 642 1462 608 1462 522 c 256
 1462 437 1524 416 1632 416 c 256
 1768 416 1791 406 1776 339 c 258
 1757 255 l 257
 1167 -41 455 -82 455 590 c 256
 455 1698 1745 2000 1745 1511 c 256
 1745 1370 1813 1353 1882 1353 c 256
 1962 1353 2026 1383 2026 1502 c 256
 2026 2411 141 1975 164 558 c 256
 181 -492 1551 -157 1725 79 c 257
 1506 -718 1282 -776 905 -641 c 256
 778 -595 627 -829 844 -909 c 256
EndSplineSet
EndChar

StartChar: H
Encoding: 40 72 50
Width: 2148
VWidth: 0
Flags: W
PickledData: "(dp1
S'com.typemytype.robofont.layerData'
p2
(dp3
s."
LayerCount: 2
Fore
SplineSet
2126 -208 m 256
 2205 -153 2124 3 2047 -29 c 256
 1779 -139 1270 -436 1466 380 c 258
 1649 1140 l 258
 1795 1744 2277 1770 2234 1457 c 256
 2187 1118 1715 651 273 828 c 256
 156 842 78 653 225 634 c 256
 1868 427 2441 1051 2471 1480 c 256
 2504 1946 1687 2138 1434 1177 c 258
 1215 344 l 258
 990.999 -509 1638 -547 2126 -208 c 256
226 -306 m 256
 345 -326 380 -244 419 -124 c 258
 805 1076 l 258
 941 1497 891 1767 584 1892 c 256
 207 2045 -314 1851 -397 1281 c 256
 -420 1126 -222 1079 -185 1277 c 256
 -102 1717 292 1818 510 1698 c 256
 639 1627 706 1484 532 1014 c 257
 150 -45 l 258
 72 -257 157 -294 226 -306 c 256
EndSplineSet
EndChar

StartChar: I
Encoding: 41 73 53
Width: 982
VWidth: 0
Flags: W
PickledData: "(dp1
S'com.typemytype.robofont.layerData'
p2
(dp3
s."
AnchorPoint: "ogonek" 0 0 basechar 0
LayerCount: 2
Fore
SplineSet
60 -86 m 256
 104 -101 568 -24 866 -12 c 256
 1005 -6 1010 143 950 166 c 256
 890 189 651 176 618 170 c 257
 650 515 982 1649 1028 1654 c 256
 1136 1667 1395 1662 1419 1724 c 256
 1450 1805 1464 1944 1384 1942 c 256
 1304 1940 570 1923 496 1916 c 256
 422 1909 393 1712 430 1671 c 256
 471 1625 706 1648 805 1648 c 257
 630 1264 465 662 391 161 c 257
 299 157 27 132 6 56 c 256
 -14 -15 16 -71 60 -86 c 256
EndSplineSet
EndChar

StartChar: J
Encoding: 42 74 64
Width: 1483
VWidth: 0
Flags: W
PickledData: "(dp1
S'com.typemytype.robofont.layerData'
p2
(dp3
s."
LayerCount: 2
Fore
SplineSet
598 -509 m 256
 1068 -509 1364 738 1598 1675 c 256
 1611 1727 1589 1786 1492 1786 c 256
 1418 1786 1385 1767 1363 1651 c 256
 1293 1262 913 -259 560 -259 c 256
 403 -259 373 -16 355 251 c 256
 346 390 171 401 176 227 c 256
 189 -187 289 -509 598 -509 c 256
1904 1512 m 256
 1928 1517 2016 1734 1871 1734 c 256
 844 1734 -38 2031 -236 1209 c 256
 -263 1095 -100 1097 -74 1158 c 256
 6 1354 165 1525 906 1509 c 256
 1892 1485 1716 1468 1904 1512 c 256
EndSplineSet
EndChar

StartChar: K
Encoding: 43 75 66
Width: 1790
VWidth: 0
Flags: W
PickledData: "(dp1
S'com.typemytype.robofont.layerData'
p2
(dp3
s."
LayerCount: 2
Fore
SplineSet
1755 -405 m 256
 1797 -405 2096 -383 2096 -278 c 256
 2096 -86 1943 -198 1808 -198 c 256
 1482 -198 1348 104 1131 861 c 257
 1666 1126 2090 1594 2170 1771 c 256
 2209 1860 2226 1965 2117 1965 c 256
 2043 1965 1998 1883 1926 1786 c 256
 1766 1571 1398 1220 937 971 c 257
 954 1155 1001 1676 1001 1899 c 256
 1001 1969 947 2004 875 1995 c 256
 33 1895 -208 1480 -148 1057 c 256
 -137 977 -74 921 6 931 c 256
 106 943 144 980 140 1034 c 256
 120 1317 148 1668 747 1790 c 257
 747 519 509 -140 69 -140 c 256
 12 -140 -32 -113 -79 -113 c 256
 -141 -113 -206 -211 -206 -273 c 256
 -206 -358 11 -373 104 -373 c 256
 547 -373 776 53 919 862 c 257
 1093 19 1311 -405 1755 -405 c 256
EndSplineSet
EndChar

StartChar: L
Encoding: 44 76 68
Width: 1820
VWidth: 0
Flags: W
PickledData: "(dp1
S'com.typemytype.robofont.layerData'
p2
(dp3
s."
AnchorPoint: "mid" 1280 513 basechar 0
LayerCount: 2
Fore
SplineSet
553 -304 m 256
 1263 -304 1441 387 1411 1038 c 257
 1411 1561 1502 1756 1747 1829 c 256
 2437 2035 2520 900 835 1295 c 256
 721 1322 665 1135 766 1112 c 256
 2864 634 2748 2201 1779 2062 c 256
 1464 2017 1158 1803 1158 1213 c 256
 1158 597 1191 -119 553 -119 c 256
 339 -119 333 135 487 136 c 256
 1018 141 2099 -1102 2597 -349 c 256
 2646 -274 2515 -171 2460 -237 c 256
 2025 -764 1109 346 481 346 c 256
 40 346 37 -304 553 -304 c 256
EndSplineSet
EndChar

StartChar: Lslash
Encoding: 256 321 74
Width: 991
VWidth: 0
Flags: W
LayerCount: 2
Fore
SplineSet
377 -50 m 256
 609 -50 798 21 969.999 89 c 257
 1026 97.9999 1066 144 1066 208 c 256
 1066 272 1034 323 968.999 323 c 256
 958 323 947 321 938 319 c 258
 603 223 l 258
 552 208 512 201 482 201 c 258
 474 201 l 258
 433 201 388 202 388 239 c 258
 388 250 l 258
 388 311 392 354 394 426 c 257
 615 562 807 750 953 960 c 256
 962 973.999 971.999 987.999 981.999 1002 c 257
 1047 1016 1110 1030 1174 1044 c 256
 1286 1069 1514 1074 1514 1199 c 256
 1514 1258 1489 1295 1433 1295 c 256
 1421 1295 1410 1294 1401 1291 c 256
 1305 1269 1207 1248 1108 1226 c 257
 1153 1328 1184 1441 1184 1568 c 256
 1184 1736 1119 1872 956 1872 c 256
 829 1872 728 1802 646 1730 c 256
 456 1563 320 1323 237 1036 c 257
 235 1036 234 1035 232 1035 c 256
 137 1014 -75 1008 -75 908 c 256
 -75 851 -41 795 19 795 c 256
 27 795 36 796 46 798 c 256
 92.9999 808 140 818 188 828 c 257
 174 755 163 679 155 602 c 258
 147 534 l 257
 89 492 20 444 -39 405 c 256
 -95 368 -181 343 -181 260 c 256
 -181 204 -146 129 -92 129 c 256
 -81 129 -55 141 -15 166 c 256
 25 191 74 224 131 266 c 257
 131 81 191 -50 377 -50 c 256
493 1091 m 257
 546 1259 620 1407 710 1525 c 256
 750 1577 808 1654 875 1654 c 256
 922 1654 933 1602 933 1545 c 256
 933 1463 920 1413 892 1345 c 256
 865 1280 833 1217 797 1157 c 257
 695 1135 594 1113 493 1091 c 257
412 678 m 257
 418 748 427 816 440 882 c 257
 504 896 569 911 633 925 c 257
 562 837 486 755 412 678 c 257
EndSplineSet
EndChar

StartChar: M
Encoding: 45 77 75
Width: 2341
VWidth: 0
Flags: W
PickledData: "(dp1
S'com.typemytype.robofont.layerData'
p2
(dp3
s."
LayerCount: 2
Fore
SplineSet
268 35 m 256
 592 1099 826 1614 1110 1614 c 256
 1311 1614 1269 1282 1186 1006 c 258
 871 -48 l 258
 871 -49 944 -122 1025 -122 c 256
 1129 -122 1152 4 1169 65 c 256
 1398 856 1662 1605 1935 1625 c 256
 2032 1632 2070 1565 2070 1498 c 256
 2070 1209 1828 755 1791 248 c 256
 1778 54 1913 -92 2182 -92 c 256
 2305 -92 2465 -12 2556 86 c 256
 2695 238 2534 357 2440 242 c 256
 2367 153 2253 106 2162 112 c 256
 2071 118 2003 177 2020 298 c 256
 2089 790 2315 1181 2315 1517 c 256
 2315 1669 2277 1896 1999 1873 c 256
 1803 1857 1544 1617 1404 1175 c 257
 1514 1620 1432 1888 1177 1878 c 256
 920 1868 727 1682 412 961 c 257
 572 1548 563 1906 193 1867 c 256
 3 1847 -274 1677 -274 1378 c 256
 -274 1246 -55 1203 -55 1203 c 257
 -55 1203 -3 1584 188 1633 c 256
 398 1687 370 1277 214 776 c 258
 -51 -78 l 258
 -51 -79 29 -152 121 -152 c 256
 238 -152 249 -26 268 35 c 256
EndSplineSet
EndChar

StartChar: N
Encoding: 46 78 77
Width: 1575
VWidth: 0
Flags: W
PickledData: "(dp1
S'com.typemytype.robofont.layerData'
p2
(dp3
s."
LayerCount: 2
Fore
SplineSet
37 -122 m 256
 154 -122 173 -28 211 65 c 256
 522 839 847 1624 1240 1624 c 256
 1320 1624 1354 1564 1355 1497 c 256
 1358 1292 1086 755 1004 248 c 256
 974 54 1096 -92 1365 -92 c 256
 1488 -92 1656 -12 1755 86 c 256
 1908 238 1757 357 1653 242 c 256
 1491 63 1182 56 1238 298 c 256
 1350 790 1622 1298 1617 1597 c 256
 1614 1748 1516 1864 1339 1878 c 256
 849 1918 604 1405 442 971 c 257
 505 1222 557 1485 555 1619 c 256
 552 1782 418 1879 278 1867 c 256
 46 1847 -122 1670 -212 1478 c 256
 -279 1334 -63 1248 -51 1283 c 256
 -4 1416 155 1672 257 1671 c 256
 327 1670 328 1532 329 1504 c 256
 335 1159 40 359 -124 -48 c 256
 -124 -49 -55 -122 37 -122 c 256
EndSplineSet
EndChar

StartChar: O
Encoding: 47 79 83
Width: 1935
VWidth: 0
Flags: W
PickledData: "(dp1
S'com.typemytype.robofont.layerData'
p2
(dp3
s."
AnchorPoint: "ogonek" 44 0 basechar 0
LayerCount: 2
Fore
SplineSet
204 630 m 256
 204 148 438 -290 937 -303 c 256
 1612 -320 1981 356 1981 963 c 256
 1978 1456 1741 1897 1227 1897 c 256
 566 1897 204 1230 204 630 c 256
1718 978 m 256
 1718 486 1445 -88 956 -70 c 256
 624 -58 468 268 468 634 c 256
 468 1116 739 1668 1241 1668 c 256
 1567 1668 1718 1346 1718 978 c 256
EndSplineSet
Substitution2: "Single Substitution lookup 3 subtable" ordmasculine
EndChar

StartChar: OE
Encoding: 273 338 84
Width: 2306
VWidth: 0
Flags: W
LayerCount: 2
Fore
SplineSet
742 -192 m 256
 985.999 -192 1187 -60 1280 95.9999 c 257
 1372 -26 1538 -96 1750 -96 c 256
 2114 -96 2408 56 2590 250 c 257
 2521 477 l 257
 2504 448 2479 420 2447 392 c 256
 2290 253 2032 128 1744 128 c 256
 1565 128 1465 209 1465 390 c 256
 1465 512 1508 624 1536 736 c 257
 2034 736 l 258
 2104 736 2158 768 2158 836 c 256
 2158 884 2128 928 2080 928 c 258
 1568 928 l 257
 1632 1280 l 258
 1664 1453 1796 1557 1998 1557 c 256
 2189 1557 2333 1475 2432 1376 c 257
 2528 1568 l 257
 2383 1673 2205 1770 1985 1770 c 256
 1774 1770 1634 1673 1536 1536 c 257
 1448 1713 1255 1856 994.999 1856 c 256
 896 1856 805 1838 722 1802 c 256
 338 1636 95.9999 1178 95.9999 633 c 256
 95.9999 187 299 -192 742 -192 c 256
766 32 m 256
 480 32 352 292 352 583 c 256
 352 864 447 1106 555 1293 c 256
 648 1454 797 1664 1034 1664 c 256
 1259 1664 1352 1486 1376 1280 c 257
 1184 352 l 257
 1105 206 984.999 32 766 32 c 256
EndSplineSet
EndChar

StartChar: Oslash
Encoding: 151 216 93
Width: 1935
VWidth: 0
Flags: W
PickledData: "(dp1
S'com.typemytype.robofont.layerData'
p2
(dp3
s."
LayerCount: 2
Fore
SplineSet
330 -547 m 258
 2041 2072 l 257
 2108 2162 1972 2214 1937 2138 c 257
 183 -446 l 257
 103 -585 263 -649 330 -547 c 258
EndSplineSet
Refer: 83 79 N 1 0 0 1 0 0 2
EndChar

StartChar: P
Encoding: 48 80 96
Width: 1551
VWidth: 0
Flags: W
PickledData: "(dp1
S'com.typemytype.robofont.layerData'
p2
(dp3
s."
LayerCount: 2
Fore
SplineSet
543 -159 m 256
 345 -159 307 297 307 619 c 256
 307 1134 493 1819 1014 1850 c 256
 1416 1873 1648 1717 1648 1437 c 256
 1648 1170.11 1397.16 974.425 1016.24 936.918 c 257
 1013.87 1084.73 1150.06 1289.43 1188.92 1432.85 c 257
 1186.59 1475.17 1132.13 1495 1076 1495 c 256
 884.099 1495 876.463 1223.04 798.571 946.119 c 257
 739.768 948.45 614.933 1037 549 1037 c 256
 522 1037 522 1002 522 957 c 256
 522 822.491 650.815 799.53 773.265 747.884 c 257
 707 255 732 -159 543 -159 c 256
508 -359 m 256
 813 -359 899 -84 941 285 c 256
 972 548 983.696 759.467 1010.17 762.973 c 256
 1560.28 824.559 1900 1094.33 1900 1459 c 256
 1900 1824.39 1569.47 2105.65 1023.65 2086.01 c 256
 394.578 2063.44 75 1394 75 619 c 256
 75 91 190 -359 508 -359 c 256
EndSplineSet
EndChar

StartChar: Q
Encoding: 49 81 98
Width: 1966
VWidth: 0
Flags: W
LayerCount: 2
Fore
SplineSet
2825 -902 m 256
 3000 -770 3016 -673 3044 -625 c 257
 3052 -603 3046 -582 3035 -566 c 256
 3005 -527 2936 -513 2901 -539 c 256
 2892 -546 2886 -554 2883 -564 c 257
 2842 -611 2803 -655 2758 -687 c 256
 2580 -821 2185 -682 1282 13 c 256
 1237 48 1102 -93 1149 -128 c 256
 1989 -755 2461 -1176 2825 -902 c 256
EndSplineSet
Refer: 83 79 N 1 0 0 1 0 0 2
EndChar

StartChar: R
Encoding: 50 82 99
Width: 2036
VWidth: 0
Flags: W
PickledData: "(dp1
S'com.typemytype.robofont.layerData'
p2
(dp3
s."
LayerCount: 2
Fore
SplineSet
548 -395 m 256
 1021 -395 987 342 1105 1092 c 256
 1126 1225 1246 1314 1251 1398 c 256
 1253 1455 1207 1484 1142 1484 c 256
 1004 1484 918 1261 884 1121 c 256
 819 824 770 -159 596 -161 c 256
 453 -163 372 141 371 599 c 256
 370 1297 667 1814 1192 1814 c 256
 1624 1814 1735 1598 1699 1373 c 256
 1660 1129 1467 1077 1024 1077 c 256
 932 1077 790 1107 749 1107 c 256
 704 1107 693 1060 692 1023 c 256
 687 879 981 876 1220 891 c 257
 1307 252 1724 -581 2150 -581 c 256
 2373 -581 2531 -410 2593 -312 c 256
 2634 -247 2518 -143 2463 -202 c 256
 2345 -329 2255 -338 2170 -327 c 256
 1945 -298 1601 202 1427 916 c 257
 1708 963 1948 1063 1991 1387 c 256
 2035 1715 1735 2061 1179 2061 c 256
 584 2061 139 1528 115 580 c 257
 93 -44 268 -395 548 -395 c 256
EndSplineSet
EndChar

StartChar: S
Encoding: 51 83 103
Width: 1733
VWidth: 0
Flags: W
PickledData: "(dp1
S'com.typemytype.robofont.layerData'
p2
(dp3
s."
LayerCount: 2
Fore
SplineSet
783 -333 m 256
 1271 -333 1631 -112 1631 255 c 256
 1631 592 1398 692 1056 883 c 256
 643 1113 541 1142 541 1344 c 256
 541 1514 806 1645 1038 1645 c 256
 1254 1645 1446 1557 1446 1402 c 256
 1446 1305 1404 1238 1353 1181 c 256
 1252 1066 1418 914 1577 1083 c 256
 1641 1151 1701 1262 1699 1401 c 256
 1694 1702 1395 1860 1008 1850 c 256
 632 1841 246 1650 246 1320 c 256
 246 1012 481 900 756 738 c 256
 1031 576 1337 491 1337 234 c 256
 1337 33 1179 -118 800 -118 c 256
 473 -118 272 7 272 244 c 256
 272 321 312 375 312 443 c 256
 312 493 277 520 227 520 c 256
 83 520 -9 384 -9 243 c 256
 -9 -150 382 -333 783 -333 c 256
EndSplineSet
EndChar

StartChar: Scaron
Encoding: 287 352 105
Width: 1641
VWidth: 0
Flags: W
LayerCount: 2
Fore
SplineSet
790 -333 m 256
 1223 -333 1543 -112 1543 255 c 256
 1543 592 1336 692 1032 883 c 256
 666 1113 575 1142 575 1344 c 256
 575 1514 810 1645 1016 1645 c 256
 1208 1645 1379 1557 1379 1402 c 256
 1379 1305 1341 1238 1296 1181 c 256
 1206 1066 1354 914 1495 1083 c 256
 1552 1151 1605 1262 1603 1401 c 256
 1599 1702 1333 1860 989.999 1850 c 256
 656 1841 313 1650 313 1320 c 256
 313 1012 522 900 766 738 c 256
 1010 576 1282 491 1282 234 c 256
 1282 33 1142 -118 805 -118 c 256
 515 -118 336 7 336 244 c 256
 336 321 372 375 372 443 c 256
 372 493 341 520 296 520 c 256
 168 520 87 384 87 243 c 256
 87 -150 434 -333 790 -333 c 256
1119 1928 m 256
 1259 1928 1291 2045 1340 2142 c 258
 1504 2471 l 258
 1510 2484 1511 2497 1511 2509 c 256
 1511 2552 1483 2600 1443 2600 c 256
 1342 2600 1314 2549 1282 2472 c 256
 1229 2346 1184 2223 1135 2092 c 257
 1107 2206 1103 2604 948 2604 c 256
 878 2604 834 2560 834 2491 c 256
 834 2478 835 2466 839 2456 c 256
 870 2355 899 2276 927 2178 c 256
 960 2065 979.999 1928 1119 1928 c 256
EndSplineSet
EndChar

StartChar: T
Encoding: 52 84 111
Width: 1366
VWidth: 0
Flags: W
PickledData: "(dp1
S'com.typemytype.robofont.layerData'
p2
(dp3
s."
LayerCount: 2
Fore
SplineSet
889 -254 m 256
 981 -254 1036 -204 1052 -105 c 256
 1072 19 972 498 1398 1662 c 257
 1206 1676 l 257
 684 624 719 -30 742 -120 c 256
 762 -197 800 -254 889 -254 c 256
2382 1612 m 256
 2407 1617 2498 1834 2348 1834 c 256
 1280 1834 296 2131 90 1309 c 256
 62 1195 232 1197 259 1258 c 256
 342 1454 507 1625 1278 1609 c 256
 2369 1585 2186 1568 2382 1612 c 256
EndSplineSet
EndChar

StartChar: Thorn
Encoding: 157 222 116
Width: 1216
VWidth: 0
Flags: W
LayerCount: 2
Fore
SplineSet
430 -355 m 256
 829 -355 858 28 907 393 c 257
 1189 427 1526 544 1526 847 c 256
 1526 1165 1282 1341 992.999 1380 c 257
 1008 1515 l 257
 1079 1855 l 257
 1079 1862 1080 1862 1080 1871 c 256
 1080 1926 1046 1954 991.999 1954 c 256
 807 1954 762 1671 756 1489 c 256
 756 1458 751 1424 746 1383 c 257
 315 1324 93.9999 952 93.9999 457 c 256
 93.9999 168 139 -355 430 -355 c 256
452 -121 m 256
 367 -121 362 184 362 336 c 258
 362 483 l 258
 362 803 465 1081 723 1143 c 257
 706 969.999 672 780 672 608 c 257
 631 608 594 632 563 632 c 256
 520 632 520 578 520 535 c 256
 520 447 591 430 659 401 c 257
 659 242 616 -121 452 -121 c 256
913 628 m 257
 967.999 1144 l 257
 1143 1116 1291 1019 1291 824 c 256
 1291 680 1058 643 913 628 c 257
EndSplineSet
EndChar

StartChar: U
Encoding: 53 85 117
Width: 1559
VWidth: 0
Flags: W
PickledData: "(dp1
S'com.typemytype.robofont.layerData'
p2
(dp3
s."
AnchorPoint: "ogonek" 583 -154 basechar 0
LayerCount: 2
Fore
SplineSet
568 64 m 256
 15 64 187 1038 523 1587 c 256
 607 1724 378 1763 298 1630 c 256
 -90 985 -243 -160 539 -160 c 256
 1516 -160 2040 2051 1321 2026 c 256
 573 2000 1032 592 2046 1412 c 256
 2123 1473 2048 1599 1961 1533 c 256
 1191 958 954 1813 1284 1826 c 256
 1735 1844 1279 64 568 64 c 256
-35 1261 m 258
 431 1559 l 258
 496 1599 444 1741 360 1690 c 258
 -101 1406 l 258
 -187 1355 -141 1194 -35 1261 c 258
EndSplineSet
EndChar

StartChar: V
Encoding: 54 86 128
Width: 1536
VWidth: 0
Flags: W
LayerCount: 2
Fore
SplineSet
1292.84 845.106 m 257
 1146.47 562.368 871.368 114.949 629.261 87.0132 c 256
 516.207 73.8407 435 165.797 435 444 c 256
 435 1017.37 740.564 1496.69 765.236 1529.21 c 256
 795.643 1570.89 656.957 1716.03 527.052 1527.86 c 256
 467.465 1443.36 212 990.533 212 464 c 256
 212 88.4204 332.823 -110 591.959 -109 c 257
 935.262 -92 1215.53 314.637 1463.4 757.976 c 257
 1883.52 1535.77 1754.67 2015.5 1458.61 2026 c 257
 711.313 2027.96 1094.99 591.781 2152.26 1411.58 c 256
 2231.6 1472.97 2164.39 1598.97 2073.43 1533.38 c 256
 1273.21 957.713 1081.72 1826 1412 1826 c 256
 1492.01 1826 1650.87 1561.16 1292.84 845.106 c 257
-23 1036.7 m 258
 647.198 1452.7 l 258
 712.05 1492.89 660.127 1635.46 575.701 1584.29 c 258
 -89 1182.29 l 258
 -175 1131.18 -129 970.288 -23 1036.7 c 258
EndSplineSet
EndChar

StartChar: W
Encoding: 55 87 129
Width: 2683
VWidth: 0
Flags: W
PickledData: "(dp1
S'com.typemytype.robofont.layerData'
p2
(dp3
s."
LayerCount: 2
Fore
SplineSet
2358.9 854.391 m 257
 2213.89 575.26 1941.18 134.732 1708.93 107.861 c 256
 1420.3 75.0404 1538.97 1262.58 1730.93 1383.28 c 257
 1495.64 1381.95 l 257
 1282.17 1034.3 1190.69 -132 1674.08 -130 c 257
 2025.84 -113 2312.6 302.755 2560.72 747.773 c 257
 2987.55 1536.57 2864 2046 2541.61 2046.99 c 256
 1762 2049 2147 632 3245.03 1395.41 c 257
 3343.46 1470.44 3257 1621 3144 1540 c 257
 2324 967 2217 1855 2514 1855 c 256
 2627 1855 2708.13 1552.85 2358.9 854.391 c 257
1566.91 884.732 m 257
 1962.03 1593.22 1543.43 1494.83 1488.6 1369.62 c 257
 1313.95 874.602 l 257
 1100.18 483.774 850.829 134.808 617.931 107.861 c 256
 517.466 96.3031 444 178.777 444 444 c 256
 444 1010.14 746.014 1483.89 770.4 1516.4 c 256
 817.054 1579.63 650.489 1752.95 503.195 1539.94 c 257
 443.489 1455.39 185 997.201 185 464 c 256
 185 81.3711 314.804 -131 583.891 -130 c 257
 933.248 -113 1245.48 322.766 1473.59 816.225 c 257
 1566.91 884.732 l 257
-22 1019.25 m 257
 647.495 1435.16 l 258
 731.253 1486.7 665.129 1667.2 557.658 1601.95 c 258
 -107 1199.97 l 257
 -211 1138.37 -153 936.417 -22 1019.25 c 257
EndSplineSet
EndChar

StartChar: X
Encoding: 56 88 134
Width: 1746
VWidth: 0
Flags: W
LayerCount: 2
Fore
SplineSet
-62 -280 m 256
 148 -280 305 -238 638 173 c 256
 1000 619 1424 1171 1758.14 1509.64 c 256
 1987 1741 1741.17 1855.2 1625.17 1712.37 c 257
 1303 1258 859 712 548 338 c 256
 317 61 155 -21 -84 -21 c 256
 -207 -21 -216 -280 -62 -280 c 256
12 1248 m 256
 381 1590 426 1512 505.308 1321.38 c 258
 1048.31 17.3844 l 258
 1201.01 -349 1399.02 -335 1656.5 -82 c 258
 1976.53 230.715 l 258
 2030.29 283.7 1914 376 1886 349 c 258
 1564 45 l 258
 1417 -93 1345.34 17.5127 1279.52 181.628 c 258
 807 1431 l 258
 686 1749 355 1834 -86 1379.12 c 256
 -162 1301 -44 1196 12 1248 c 256
EndSplineSet
EndChar

StartChar: Y
Encoding: 57 89 135
Width: 1461
VWidth: 0
Flags: W
PickledData: "(dp1
S'com.typemytype.robofont.layerData'
p2
(dp3
s."
LayerCount: 2
Fore
SplineSet
478 -705 m 256
 478 -476 1206 241 1783 647 c 256
 1837 684 1779 825 1709 778 c 256
 1321 516 277 -342 277 -802 c 256
 277 -907 343 -994 467 -994 c 256
 845 -994 1009 -561 1237 315 c 257
 1237 316 l 257
 1514 1496 l 258
 1543 1617 1541 1692 1406 1692 c 256
 1352 1692 1308 1648 1288 1556 c 258
 1076 613 l 257
 643 54 -174 -81 504 1647 c 256
 527 1708 464 1724 416 1724 c 256
 339 1724 305 1674 286 1636 c 256
 -336 423 205 -520 1029 363 c 257
 850 -374 615 -786 535 -786 c 256
 504 -786 478 -766 478 -705 c 256
EndSplineSet
EndChar

StartChar: Z
Encoding: 58 90 140
Width: 1265
VWidth: 0
Flags: W
PickledData: "(dp1
S'com.typemytype.robofont.layerData'
p2
(dp3
s."
LayerCount: 2
Fore
SplineSet
87 379 m 256
 -31 262 -182 94 -141 46 c 256
 -105 3 -58 -9 -7 -2 c 257
 245 149 l 257
 670 -69 939 -375 1545 6 c 256
 1561 16 1544 107 1537 125 c 256
 1518 170 1509 224 1463 194 c 256
 908 -166 998 45 420 296 c 257
 409 319 l 257
 644 565 1254 1247 1707 1615 c 257
 1594 1763 1575 1728 1379 1590 c 256
 817 1190 251 543 87 379 c 256
1904 1612 m 256
 1928 1617 2016 1834 1871 1834 c 256
 844 1834 -38 2131 -236 1309 c 256
 -263 1195 -100 1197 -74 1258 c 256
 6 1454 165 1625 906 1609 c 256
 1892 1585 1716 1568 1904 1612 c 256
EndSplineSet
EndChar

StartChar: a
Encoding: 65 97 144
Width: 1025
VWidth: 0
Flags: W
PickledData: "(dp1
S'com.typemytype.robofont.layerData'
p2
(dp3
s."
AnchorPoint: "ogonek" 860 0 basechar 0
LayerCount: 2
Fore
SplineSet
326 -16 m 256
 466 -22 599 60 656 191 c 257
 671 74 749 0 860 0 c 256
 1023 0 1183 150 1254 250 c 257
 1258 258 1260 272 1260 287 c 256
 1260 342 1235 424 1192 424 c 256
 1180 424 1165 416 1150 399 c 257
 1101 335 981.999 203 885 203 c 256
 840 203 830 254 838 303 c 258
 921 809 l 258
 931 867 899 902 840 902 c 258
 762 902 l 257
 762 929 770 980 643 980 c 256
 366 980 52 656 52 289 c 256
 52 123 152 -8 326 -16 c 256
392 190 m 256
 311 190 293 260 293 324 c 256
 293 508 469 787 708 787 c 257
 628 474 l 258
 604 380 531 190 392 190 c 256
EndSplineSet
Substitution2: "'fina' Terminal Forms in Latin lookup 5 subtable" a.fina
Substitution2: "'init' Initial Forms in Latin lookup 4 subtable" a.init
Substitution2: "Single Substitution lookup 2 subtable" ordfeminine
EndChar

StartChar: aacute
Encoding: 160 225 145
Width: 1025
VWidth: 0
Flags: W
LayerCount: 2
Fore
SplineSet
341 -16 m 256
 481 -16 599 60 656 191 c 257
 671 74 749 0 860 0 c 256
 1023 0 1183 150 1254 250 c 257
 1258 258 1260 272 1260 287 c 256
 1260 342 1235 424 1192 424 c 256
 1180 424 1165 416 1150 399 c 257
 1101 335 981.999 203 885 203 c 256
 840 203 830 254 838 303 c 258
 919 795 l 258
 929 853 897 888 838 888 c 258
 760 888 l 257
 760 915 768 966 641 966 c 256
 364 966 79 648 79 281 c 256
 79 115 179 -16 341 -16 c 256
407 190 m 256
 326 190 308 260 308 324 c 256
 308 508 467 773 706 773 c 257
 628 474 l 258
 604 380 546 190 407 190 c 256
722 1193 m 258
 1072 1525 l 258
 1205 1651 976.999 1821 891 1675 c 258
 638 1265 l 258
 584 1180 660 1134 722 1193 c 258
EndSplineSet
EndChar

StartChar: acute
Encoding: 115 180 148
Width: 609
VWidth: 0
Flags: W
PickledData: "(dp1
S'com.typemytype.robofont.layerData'
p2
(dp3
s."
LayerCount: 2
Fore
SplineSet
378 2276 m 258
 728 2608 l 258
 861 2734 633 2904 547 2758 c 258
 294 2348 l 258
 240 2263 316 2217 378 2276 c 258
EndSplineSet
EndChar

StartChar: agrave
Encoding: 159 224 153
Width: 1025
VWidth: 0
Flags: W
LayerCount: 2
Fore
SplineSet
341 -16 m 256
 481 -16 599 60 656 191 c 257
 671 74 749 0 860 0 c 256
 1023 0 1183 150 1254 250 c 257
 1258 258 1260 272 1260 287 c 256
 1260 342 1235 424 1192 424 c 256
 1180 424 1165 416 1150 399 c 257
 1101 335 981.999 203 885 203 c 256
 840 203 830 254 838 303 c 258
 919 795 l 258
 929 853 897 888 838 888 c 258
 760 888 l 257
 760 915 768 966 641 966 c 256
 364 966 79 648 79 281 c 256
 79 115 179 -16 341 -16 c 256
634 1082 m 256
 669 1082 692 1113 692 1149 c 256
 692 1167 689 1183 682 1197 c 256
 613 1348 557 1485 490 1640 c 256
 474 1677 442 1704 395 1704 c 256
 317 1704 250 1646 250 1568 c 256
 250 1538 262 1506 287 1471 c 256
 349 1386 421 1296 488 1214 c 256
 523 1171 566 1082 634 1082 c 256
407 190 m 256
 326 190 308 260 308 324 c 256
 308 508 467 773 706 773 c 257
 628 474 l 258
 604 380 546 190 407 190 c 256
EndSplineSet
EndChar

StartChar: ampersand
Encoding: 6 38 155
Width: 1523
VWidth: 0
Flags: W
LayerCount: 2
Fore
SplineSet
1370 -238 m 256
 1510 -238 1600 -169 1600 -132 c 256
 1600 -72 1433 -31 1364 24 c 256
 1321 58 1263 111 1174 196 c 257
 1339 287 1481 397 1481 563 c 256
 1481 625 1384 667 1321 667 c 256
 1291 667 1269 657 1269 636 c 256
 1269 495 1196 426 1058 365 c 257
 966 495 838 698 758 864 c 257
 921 963 1115 1112 1115 1355 c 256
 1115 1541 969.999 1652 782 1652 c 256
 550 1652 353 1473 353 1242 c 256
 353 1095 417 957 471 857 c 257
 295 762 64 602 64 345 c 256
 64 96.9999 301 0 558 0 c 256
 729 0 863 34 958 78 c 257
 958 66 1025 -24 1180 -179 c 256
 1233 -232 1308 -238 1370 -238 c 256
566 202 m 256
 433 202 322 252 322 381 c 256
 322 544 440 660 535 734 c 257
 631 547 718 405 839 252 c 257
 768 226 675 202 566 202 c 256
711 992.999 m 257
 659 1080 630 1176 630 1256 c 256
 630 1361 680 1440 794 1440 c 256
 878 1440 928 1414 928 1332 c 256
 928 1172 801 1075 711 992.999 c 257
EndSplineSet
EndChar

StartChar: asciicircum
Encoding: 62 94 159
Width: 1089
VWidth: 0
Flags: W
LayerCount: 2
Fore
SplineSet
197 504 m 256
 198 504 198 503 198 504 c 256
 198 505 197 508 194 511 c 257
 254 511 291 554 318 603 c 257
 578 1124 l 257
 784 642 l 258
 808 587 858 508 933 508 c 256
 986.999 508 1023 566 1023 622 c 256
 1023 640 1021 660 1013 680 c 256
 945 859 865 1031 785 1189 c 256
 742 1273 687 1344 567 1344 c 256
 447 1344 395 1228 344 1132 c 256
 293 1037 237 930 186 832 c 256
 153 768 92.9999 702 92.9999 621 c 256
 92.9999 570 186 504 197 504 c 256
EndSplineSet
EndChar

StartChar: asciitilde
Encoding: 94 126 160
Width: 864
VWidth: 0
Flags: W
LayerCount: 2
Fore
SplineSet
728 1295 m 256
 846 1295 973.999 1442 973.999 1557 c 256
 973.999 1603 937 1630 891 1630 c 256
 792 1630 759 1521 710 1467 c 257
 608 1568 l 258
 549 1626 499 1713 392 1713 c 256
 274 1713 146 1566 146 1451 c 256
 146 1405 183 1378 229 1378 c 256
 324 1378 366 1486 410 1541 c 257
 512 1440 l 258
 571 1382 621 1295 728 1295 c 256
EndSplineSet
EndChar

StartChar: asterisk
Encoding: 10 42 161
Width: 1024
VWidth: 0
Flags: W
LayerCount: 2
Fore
SplineSet
424 864 m 256
 485 864 548 897 548 957 c 256
 548 1052 550 1154 553 1248 c 257
 618 1180 695 1110 765 1045 c 256
 780 1030 800 1022 823 1022 c 256
 885 1022 951 1072 951 1133 c 256
 951 1170 927 1193 897 1208 c 256
 816 1248 725 1289 642 1326 c 257
 738 1339 992.999 1349 992.999 1452 c 256
 992.999 1515 936 1576 873 1576 c 256
 856 1576 846 1572 835 1566 c 256
 755 1521 667 1472 586 1429 c 257
 622 1516 658 1616 689 1708 c 256
 693 1720 694 1732 694 1745 c 256
 694 1797 651 1824 601 1824 c 256
 539 1824 478 1793 478 1731 c 256
 478 1635 473 1532 473 1437 c 257
 405 1502 329 1574 260 1640 c 256
 245 1655 226 1663 203 1663 c 256
 141 1663 74 1613 74 1551 c 256
 74 1522 91 1496 128 1477 c 256
 208 1436 298 1397 381 1360 c 257
 286 1344 32 1340 32 1235 c 256
 32 1172 90 1110 153 1110 c 256
 167 1110 180 1113 191 1120 c 257
 272 1163 359 1210 438 1255 c 257
 402 1168 331 1050 331 943 c 256
 331 890 372 864 424 864 c 256
EndSplineSet
EndChar

StartChar: at
Encoding: 32 64 162
Width: 2241
VWidth: 0
Flags: W
LayerCount: 2
Fore
SplineSet
896 -362 m 256
 1159 -362 1398 -330 1598 -256 c 256
 1683 -224 1839 -189 1839 -75 c 256
 1839 4 1794 35 1733 7 c 256
 1537 -83 1290 -128 991.999 -128 c 256
 668 -128 400 -51 400 261 c 256
 400 669 737 1376 1344 1376 c 256
 1696 1376 1888 1190 1888 832 c 256
 1888 628 1784 289 1580 289 c 256
 1555 289 1548 313 1548 340 c 256
 1548 452 1706 754 1706 1018 c 256
 1706 1209 1604 1179 1556 1179 c 257
 1557 1184 1557 1189 1557 1194 c 256
 1557 1256 1341 1253 1202 1202 c 256
 907 1094 620 776 620 378 c 256
 620 170 746 32 950 32 c 256
 1161 32 1290 196 1363 345 c 257
 1342 235 1330 54 1475 54 c 256
 1767 54 2138 389 2138 870 c 256
 2138 1333 1804 1568 1344 1568 c 256
 743 1568 112 961 112 215 c 256
 112 -208 461 -362 896 -362 c 256
1027 227 m 256
 871 227 886 395 916 512 c 256
 1010 875 1229 1093 1486 1029 c 257
 1355 578 l 258
 1313 434 1206 227 1027 227 c 256
EndSplineSet
EndChar

StartChar: b
Encoding: 66 98 164
Width: 1121
VWidth: 0
Flags: W
PickledData: "(dp1
S'com.typemytype.robofont.layerData'
p2
(dp3
s."
LayerCount: 2
Fore
SplineSet
537 -16 m 256
 852 -16 1025 277 1025 674 c 256
 1025 831 928 931 831 946 c 256
 738 960 593 865 593 865 c 257
 787 1017 1020 1421 1041 1660 c 256
 1052 1785 1013 1920 859 1920 c 256
 434 1920 133 1048 112 408 c 256
 104 156 261 -16 537 -16 c 256
928 363 m 256
 1077 363 1248 427 1334 506 c 256
 1363 533 1368 548 1368 585 c 256
 1368 629 1345 660 1305 660 c 256
 1265 660 1141 521 983 521 c 256
 861 521 891 648 828 648 c 256
 753 648 689 575 689 518 c 256
 689 395 782 363 928 363 c 256
563 176 m 256
 415 167 372 290 372 412 c 256
 372 588 499 774 671 774 c 256
 833 774 798 675 798 557 c 256
 798 386 702 184 563 176 c 256
361 771 m 257
 394 1018 591 1680 778 1680 c 256
 814 1680 832 1655 826 1589 c 256
 802 1328 535 1001 361 771 c 257
EndSplineSet
Substitution2: "'fina' Terminal Forms in Latin lookup 5 subtable" b.fina
Substitution2: "'init' Initial Forms in Latin lookup 4 subtable" b.init
EndChar

StartChar: backslash
Encoding: 60 92 165
Width: 1248
VWidth: 0
Flags: W
LayerCount: 2
Fore
SplineSet
1053 -39 m 256
 1114 -39 1159 -8 1159 55 c 256
 1159 108 1140 150 1120 197 c 256
 913 656 696 1138 489 1598 c 256
 440 1708 408 1864 267 1864 c 256
 196 1864 155 1815 155 1743 c 256
 155 1697 168 1659 185 1622 c 256
 414 1111 611 569 867 64 c 256
 896 6 966 -39 1053 -39 c 256
EndSplineSet
EndChar

StartChar: bar
Encoding: 92 124 166
Width: 1248
VWidth: 0
Flags: W
LayerCount: 2
Fore
SplineSet
584 -43 m 257
 584 -41 583 -38 579 -32 c 257
 671 -32 738 43 750 128 c 256
 796 441 843 765 891 1080 c 256
 924 1299 986.999 1519 986.999 1739 c 256
 986.999 1797 952 1856 892 1856 c 256
 792 1856 729 1785 715 1696 c 256
 672 1433 625 1148 582 877 c 256
 544 636 472 373 472 129 c 256
 472 64 574 -43 584 -43 c 257
584 -43 m 257
 584 -44 585 -43 584 -43 c 257
EndSplineSet
EndChar

StartChar: braceleft
Encoding: 91 123 168
Width: 1153
VWidth: 0
Flags: W
LayerCount: 2
Fore
SplineSet
570 -312 m 256
 731 -312 1019 -255 1019 -87 c 256
 1019 -26 985.999 18 926 18 c 256
 828 18 778 -56 675 -56 c 256
 596 -56 580 4 580 86 c 256
 580 234 627 378 627 534 c 256
 627 662 591 755 488 781 c 257
 576 813 627 882 660 967.999 c 256
 717 1118 698 1568 900 1568 c 256
 999.999 1568 1088 1536 1183 1536 c 256
 1251 1536 1305 1601 1305 1669 c 256
 1305 1695 1294 1715 1278 1728 c 256
 1185 1798 1037 1824 877 1824 c 256
 639 1824 520 1597 487 1384 c 257
 487 1176 l 258
 487 1022 428 924 254 920 c 256
 176 918 132 818 132 735 c 256
 132 680 154 632 209 632 c 256
 320 632 365 549 365 439 c 256
 365 298 312 170 312 23 c 256
 312 -160 389 -312 570 -312 c 256
EndSplineSet
EndChar

StartChar: braceright
Encoding: 93 125 169
Width: 1248
VWidth: 0
Flags: W
LayerCount: 2
Fore
SplineSet
450 -342 m 256
 498 -342 543 -330 586 -308 c 256
 800 -196 833 66 880 346 c 256
 896 440 963 512 1073 512 c 256
 1154 512 1193 606 1193 688 c 256
 1193 744 1172 799 1118 800 c 256
 1012 802 955 837 955 943 c 256
 955 1111 1016 1248 1016 1415 c 256
 1016 1598 937 1744 757 1744 c 256
 588 1744 274 1718 274 1552 c 256
 274 1498 305 1456 359 1456 c 256
 457 1456 549 1488 652 1488 c 256
 732 1488 748 1432 748 1350 c 256
 748 1206 702 1067 702 916 c 256
 702 784 743 697 840 661 c 257
 752 642 702 578 670 501 c 256
 610 356 626 -86 427 -86 c 256
 340 -86 206 -21 195 -12 c 257
 120 -14 64 -84 64 -163 c 256
 64 -289 320 -342 450 -342 c 256
195 -12 m 257
 198 -12 l 258
 197 -12 195 -11 195 -11 c 258
 194 -11 194 -11 195 -12 c 257
EndSplineSet
EndChar

StartChar: bracketleft
Encoding: 59 91 170
Width: 927
VWidth: 0
Flags: W
LayerCount: 2
Fore
SplineSet
353 -192 m 258
 671 -192 l 258
 744 -192 828 -120 828 -51 c 256
 828 -5 791 32 745 32 c 258
 459 32 l 257
 495 258 531 496 566 730 c 256
 600 957 672 1218 672 1443 c 257
 958 1443 l 258
 1020 1443 1088 1499 1088 1561 c 256
 1088 1618 1049 1667 989.999 1667 c 258
 672 1667 l 258
 487 1667 416 1563 392 1415 c 256
 329 1025 292 636 228 258 c 256
 209 147 176 59 176 -53 c 256
 176 -156 246 -192 353 -192 c 258
EndSplineSet
EndChar

StartChar: bracketright
Encoding: 61 93 171
Width: 927
VWidth: 0
Flags: W
LayerCount: 2
Fore
SplineSet
108 -192 m 258
 416 -192 l 258
 601 -192 672 -88 696 60 c 256
 759 450 794 840 860 1218 c 256
 879 1329 912 1416 912 1528 c 256
 912 1631 842 1667 735 1667 c 258
 389 1667 l 258
 323 1667 264 1607 264 1544 c 256
 264 1490 315 1443 369 1443 c 258
 629 1443 l 257
 593 1217 557 978.999 522 745 c 256
 488 518 416 257 416 32 c 257
 119 32 l 258
 61 32 0 -22 0 -80 c 256
 0 -139 47 -192 108 -192 c 258
EndSplineSet
EndChar

StartChar: breve
Encoding: 401 728 172
Width: 600
VWidth: 0
Flags: W
LayerCount: 2
Fore
SplineSet
511 1359 m 256
 502 1193 189 1177 196 1324 c 256
 201 1408 66 1407 61 1325 c 256
 54 1179 160 1088 331 1088 c 256
 472 1088 626 1166 636 1352 c 256
 639 1411 513 1401 511 1359 c 256
EndSplineSet
EndChar

StartChar: brokenbar
Encoding: 101 166 174
Width: 1025
VWidth: 0
Flags: W
LayerCount: 2
Fore
SplineSet
459 -162 m 256
 528 -162 556 -126 566 -64 c 256
 582 31 593 98.9999 605 194 c 258
 623 338 l 258
 631 399 654 499 654 585 c 256
 654 671 616 749 533 749 c 256
 452 749 410 681 400 608 c 256
 369 397 308 218 308 0.999999 c 256
 308 -76 340 -160 415 -160 c 256
 429 -160 444 -162 459 -162 c 256
615 943 m 256
 695 943 726 1014 735 1088 c 256
 757 1266 808 1471 808 1646 c 258
 808 1668 l 258
 808 1757 776 1854 691 1854 c 256
 627 1854 589 1791 575 1728 c 256
 532 1540 507 1326 483 1125 c 256
 482 1120 481 1114 481 1110 c 258
 481 1097 l 258
 481 1015 535 943 615 943 c 256
EndSplineSet
EndChar

StartChar: bullet
Encoding: 454 8226 175
Width: 1120
VWidth: 0
Flags: W
LayerCount: 2
Fore
SplineSet
512 251 m 256
 730 251 864 447 864 672 c 256
 864 822 787 896 640 896 c 256
 431 896 256 756 256 544 c 256
 256 368 342 251 512 251 c 256
EndSplineSet
EndChar

StartChar: c
Encoding: 67 99 176
Width: 804
VWidth: 0
Flags: W
PickledData: "(dp1
S'com.typemytype.robofont.layerData'
p2
(dp3
s."
LayerCount: 2
Fore
SplineSet
473 -17 m 256
 741 -17 938 162 1034 307 c 256
 1077 372 1006 475 950 414 c 256
 830 282 680 153 504 153 c 256
 369 153 277 245 282 399 c 256
 291 673 445 777 546 777 c 256
 597 777 638 748 636 707 c 256
 632 624 596 617 596 577 c 256
 596 536 627 496 670 496 c 256
 733 496 832 613 832 735 c 256
 832 855 729 966 559 966 c 256
 249 966 54 631 64 368 c 256
 75 66 318 -17 473 -17 c 256
EndSplineSet
Substitution2: "'fina' Terminal Forms in Latin lookup 5 subtable" c.fina
Substitution2: "'init' Initial Forms in Latin lookup 4 subtable" c.init
EndChar

StartChar: caron
Encoding: 399 711 178
Width: 864
VWidth: 0
Flags: W
LayerCount: 2
Fore
SplineSet
424 2296 m 256
 564 2296 596 2413 645 2510 c 258
 809 2839 l 258
 815 2852 816 2865 816 2877 c 256
 816 2920 788 2968 748 2968 c 256
 647 2968 619 2917 587 2840 c 256
 534 2714 489 2591 440 2460 c 257
 412 2574 408 2972 253 2972 c 256
 183 2972 139 2928 139 2859 c 256
 139 2846 140 2834 144 2824 c 256
 175 2723 204 2644 232 2546 c 256
 265 2433 285 2296 424 2296 c 256
EndSplineSet
EndChar

StartChar: cedilla
Encoding: 119 184 183
Width: 1184
VWidth: 0
Flags: W
LayerCount: 2
Fore
SplineSet
536 -361 m 258
 666 18 l 258
 680 58 640 91 603 40 c 258
 351 -305 l 258
 256 -435 477 -533 536 -361 c 258
EndSplineSet
EndChar

StartChar: cent
Encoding: 97 162 184
Width: 896
VWidth: 0
Flags: W
LayerCount: 2
Fore
SplineSet
490 -199 m 256
 532 -199 544 -167 552 -130 c 257
 568 5 l 257
 682 32 778 97.9999 854 161 c 256
 871 175 884 191 884 218 c 256
 884 262 852 314 809 314 c 256
 802 314 793 313 785 307 c 256
 734 271 654 222 586 202 c 257
 603 394 612 583 624 765 c 257
 738 741 646 544 772 544 c 256
 853 544 886 646 886 729 c 256
 886 866 762 936 638 954 c 257
 641 979.999 645 1027 645 1057 c 256
 645 1086 632 1135 604 1135 c 256
 547 1135 518 1077 515 1023 c 258
 509 956 l 257
 254 928 64 697 64 413 c 256
 64 179 196 3 429 0 c 257
 427 -40 423 -54 423 -89 c 256
 423 -129 433 -198 469 -198 c 256
 476 -198 482 -199 490 -199 c 256
444 195 m 257
 354 214 320 306 320 414 c 256
 320 571 375 703 491 750 c 257
 475 569 459 377 444 195 c 257
EndSplineSet
EndChar

StartChar: circumflex
Encoding: 398 710 185
Width: 864
VWidth: 0
Flags: W
LayerCount: 2
Fore
SplineSet
639 2279 m 258
 657 2192 838 2182 806 2340 c 258
 746 2635 l 258
 715 2789 701 2885 581 2885 c 256
 427 2885 420 2808 337 2671 c 258
 168 2392 l 258
 92 2267 271 2222 320 2311 c 258
 547 2721 l 257
 639 2279 l 258
EndSplineSet
EndChar

StartChar: colon
Encoding: 26 58 186
Width: 704
VWidth: 0
Flags: W
LayerCount: 2
Fore
SplineSet
484 0 m 256
 603 0 672 76 672 191 c 256
 672 297 611 353 503 353 c 256
 386 353 320 277 320 162 c 256
 320 55 378 0 484 0 c 256
544 672 m 256
 663 672 732 748 732 863 c 256
 732 968.999 671 1025 563 1025 c 256
 446 1025 380 949 380 834 c 256
 380 727 438 672 544 672 c 256
EndSplineSet
EndChar

StartChar: comma
Encoding: 12 44 187
Width: 849
VWidth: 0
Flags: W
LayerCount: 2
Fore
SplineSet
254 -223 m 256
 395 -183 602 -29 602 183 c 256
 602 260 569 333 474 321 c 256
 395 311 366 273 359 218 c 256
 339 53 275 -22 194 -159 c 256
 166 -206 209 -236 254 -223 c 256
EndSplineSet
EndChar

StartChar: copyright
Encoding: 104 169 190
Width: 1792
VWidth: 0
Flags: W
LayerCount: 2
Fore
SplineSet
830 323 m 256
 963 323 1068 383 1146 440 c 256
 1162 452 1172 470 1172 495 c 256
 1172 534 1151 587 1113 587 c 256
 1108 587 1102 585 1095 582 c 257
 1040 548 960 496 876 496 c 256
 775 496 739 578 739 677 c 256
 739 813 780 985.999 916 985.999 c 256
 936 985.999 939 965 939 943 c 256
 939 921 933 881 933 858 c 256
 933 809 947 784 997.999 784 c 256
 1082 784 1126 874 1126 959 c 256
 1126 1084 1025 1158 898 1158 c 256
 806 1158 738 1121 686 1076 c 256
 586 988.999 518 818 518 660 c 256
 518 482 605 323 830 323 c 256
834 32 m 256
 918 32 995.999 44 1068 66 c 256
 1378 163 1626 436 1626 838 c 256
 1626 1224 1379 1440 988.999 1440 c 256
 498 1440 107 1146 107 657 c 256
 107 251 417 32 834 32 c 256
838 192 m 256
 526 192 292 342 292 646 c 256
 292 1020 572 1278 953 1278 c 256
 1253 1278 1441 1126 1441 833 c 256
 1441 472 1205 192 838 192 c 256
EndSplineSet
EndChar

StartChar: currency
Encoding: 99 164 191
Width: 1472
VWidth: 0
Flags: W
LayerCount: 2
Fore
SplineSet
1117 347 m 256
 1165 347 1217 402 1217 451 c 257
 1216 476 1197 506 1159 541 c 258
 1060 630 l 257
 1163 745 1241 911 1241 1124 c 256
 1241 1194 1229 1258 1204 1315 c 257
 1319 1394 l 258
 1357 1420 1397 1447 1397 1495 c 256
 1397 1541 1360 1588 1314 1588 c 256
 1232 1588 1147 1502 1089 1462 c 257
 1025 1510 939 1540 830 1540 c 256
 718 1540 627 1514 553 1473 c 257
 433 1579 l 258
 400 1608 370 1623 344 1623 c 256
 296 1623 243 1569 243 1521 c 256
 243 1480 274 1455 302 1429 c 258
 397 1343 l 257
 309 1236 247 1083 248 901 c 256
 248 820 263 746 294 681 c 257
 142 576 l 258
 104 549 64 522 64 474 c 256
 64 429 101 381 146 381 c 256
 159 381 176 386 196 395 c 256
 271 430 344 487 410 535 c 257
 474 485 557 452 666 452 c 256
 759 452 834 473 898 505 c 257
 948 460 1031 347 1117 347 c 256
696 645 m 256
 547 645 472 750 472 901 c 256
 472 1145 583 1348 824 1348 c 256
 949 1348 1016 1250 1016 1125 c 256
 1016 900 920 645 696 645 c 256
EndSplineSet
EndChar

StartChar: d
Encoding: 68 100 192
Width: 1128
VWidth: 0
Flags: W
PickledData: "(dp1
S'com.typemytype.robofont.layerData'
p2
(dp3
s."
LayerCount: 2
Fore
SplineSet
358 -16 m 256
 510 -16 612 57 667 193 c 257
 725 61 833 -8 955 -8 c 256
 1171 -8 1313 130 1408 248 c 256
 1417 260 1433 290 1432 318 c 256
 1427 371 1380 404 1338 403 c 256
 1319 403 1306 402 1295 389 c 256
 1244 326 1109 175 978 175 c 256
 894 175 837 260 842 454 c 257
 1069 788 1464 1273 1425 1727 c 256
 1415 1828 1330 1921 1210 1921 c 256
 915 1921 746 1520 665 951 c 257
 346 1052 38 648 69 283 c 256
 85 102 206 -16 358 -16 c 256
406 190 m 256
 365 190 305 207 295 325 c 256
 278 527 428 773 654 773 c 257
 622 551 l 258
 580 261 507 190 406 190 c 256
848 739 m 257
 901 1141 977 1680 1167 1680 c 256
 1193 1680 1213 1667 1218 1619 c 256
 1242 1344 1035 1038 848 739 c 257
EndSplineSet
Substitution2: "'fina' Terminal Forms in Latin lookup 5 subtable" d.fina
Substitution2: "'init' Initial Forms in Latin lookup 4 subtable" d.init
EndChar

StartChar: dagger
Encoding: 452 8224 193
Width: 1152
VWidth: 0
Flags: W
LayerCount: 2
Fore
SplineSet
352 255 m 256
 442 255 488 291 506 368 c 256
 558 586 612 826 660 1055 c 257
 920 1055 l 258
 983.999 1055 1024 1071 1024 1137 c 256
 1024 1189 989.999 1216 939 1216 c 258
 694 1216 l 257
 717 1323 750 1415 750 1525 c 256
 750 1572 734 1606 687 1606 c 256
 500 1606 507 1370 470 1216 c 257
 234 1216 l 258
 175 1216 128 1188 128 1129 c 256
 128 1070 162 1055 224 1055 c 258
 433 1055 l 257
 385 854 l 258
 348 698 280 529 280 369 c 256
 280 312 295 255 352 255 c 256
EndSplineSet
EndChar

StartChar: daggerdbl
Encoding: 453 8225 194
Width: 1152
VWidth: 0
Flags: W
LayerCount: 2
Fore
SplineSet
352 255 m 256
 532 255 527 457 562 608 c 257
 824 608 l 258
 888 608 928 624 928 690 c 256
 928 742 894 769 843 769 c 258
 598 769 l 257
 619 862 640 961 660 1055 c 257
 920 1055 l 258
 983.999 1055 1024 1071 1024 1137 c 256
 1024 1189 989.999 1216 939 1216 c 258
 694 1216 l 257
 717 1323 750 1415 750 1525 c 256
 750 1572 734 1606 687 1606 c 256
 500 1606 507 1370 470 1216 c 257
 234 1216 l 258
 175 1216 128 1188 128 1129 c 256
 128 1070 162 1055 224 1055 c 258
 433 1055 l 257
 364 769 l 257
 138 769 l 258
 79 769 32 741 32 682 c 256
 32 623 66 608 128 608 c 258
 326 608 l 257
 307 524 280 453 280 369 c 256
 280 312 295 255 352 255 c 256
EndSplineSet
EndChar

StartChar: degree
Encoding: 111 176 198
Width: 737
VWidth: 0
Flags: W
LayerCount: 2
Fore
SplineSet
324 1203 m 256
 256 1203 215 1249 215 1316 c 256
 215 1423 303 1489 413 1489 c 256
 474 1489 509 1447 509 1388 c 256
 509 1285 429 1203 324 1203 c 256
324 1055 m 256
 525 1055 672 1197 672 1403 c 256
 672 1542 576 1632 440 1632 c 256
 249 1632 64 1511 64 1317 c 256
 64 1155 168 1055 324 1055 c 256
EndSplineSet
EndChar

StartChar: dieresis
Encoding: 103 168 199
Width: 1025
VWidth: 0
Flags: W
LayerCount: 2
Fore
SplineSet
307 2248 m 256
 361 2248 443 2289 443 2383 c 256
 443 2448 419 2492 324 2492 c 256
 271 2492 192 2451 192 2357 c 256
 192 2292 215 2248 307 2248 c 256
804 2248 m 256
 858 2248 940 2289 940 2383 c 256
 940 2448 916 2492 821 2492 c 256
 768 2492 689 2451 689 2357 c 256
 689 2292 712 2248 804 2248 c 256
EndSplineSet
EndChar

StartChar: divide
Encoding: 182 247 200
Width: 1025
VWidth: 0
Flags: W
LayerCount: 2
Fore
SplineSet
218 545 m 258
 820 545 l 258
 891 545 927 587 927 660 c 256
 927 710 888 737 832 737 c 258
 234 737 l 258
 162 737 94.9999 703 94.9999 635 c 256
 94.9999 573 153 545 218 545 c 258
478 121 m 256
 597 121 666 197 666 312 c 256
 666 418 605 474 497 474 c 256
 380 474 314 398 314 283 c 256
 314 176 372 121 478 121 c 256
538 793 m 256
 657 793 726 869 726 983.999 c 256
 726 1090 665 1146 557 1146 c 256
 440 1146 374 1070 374 955 c 256
 374 848 432 793 538 793 c 256
EndSplineSet
EndChar

StartChar: dollar
Encoding: 4 36 201
Width: 1735
VWidth: 0
Flags: W
LayerCount: 2
Fore
SplineSet
862 -225 m 256
 919 -225 948 -204 962 -158 c 257
 991.999 4 l 257
 1292 31 1537 182 1537 507 c 256
 1537 754 1324 873 1163 966 c 257
 1259 1523 l 257
 1349 1506 1457 1463 1457 1374 c 256
 1457 1293 1505 1227 1584 1227 c 256
 1661 1227 1697 1294 1697 1374 c 256
 1697 1590 1479 1691 1293 1728 c 257
 1308 1820 l 258
 1312 1847 1317 1877 1317 1906 c 256
 1317 1945 1291 1984 1250 1984 c 256
 1172 1984 1116 1938 1106 1872 c 258
 1084 1743 l 257
 792 1731 496 1587 496 1294 c 256
 496 1049 756 941 923 853 c 257
 807 210 l 257
 651 222 496 270 496 420 c 256
 496 529 543 598 647 598 c 256
 699 598 733 632 733 680 c 256
 733 743 682 778 617 778 c 256
 394 778 257 635 257 417 c 256
 257 133 505 26 770 4 c 257
 762 -37 754 -70 754 -114 c 256
 754 -167 776 -224 827 -224 c 256
 839 -224 850 -225 862 -225 c 256
965 1081 m 257
 884 1132 767 1198 767 1324 c 256
 767 1464 911 1517 1046 1531 c 257
 1021 1386 991.999 1231 965 1081 c 257
1033 224 m 257
 1124 741 l 257
 1199 691 1297 627 1297 507 c 256
 1297 341 1169 258 1033 224 c 257
EndSplineSet
EndChar

StartChar: dotaccent
Encoding: 402 729 203
Width: 704
VWidth: 0
Flags: W
LayerCount: 2
Fore
SplineSet
340 2306 m 256
 418 2306 485 2374 485 2454 c 256
 485 2521 425 2578 354 2578 c 256
 277 2578 212 2511 212 2431 c 256
 212 2363 271 2306 340 2306 c 256
EndSplineSet
EndChar

StartChar: dotlessi
Encoding: 240 305 204
Width: 537
VWidth: 0
Flags: W
PickledData: "(dp1
S'com.typemytype.robofont.layerData'
p2
(dp3
s."
LayerCount: 2
Fore
SplineSet
282 0 m 256
 466 0 636 121 736 213 c 257
 736 416 l 257
 658 352 534 192 403 192 c 256
 357 192 352 240 352 290 c 256
 352 514 486 695 486 903 c 256
 486 945 462 960 414 960 c 256
 335 960 248 928 232 863 c 256
 182 661 95.9999 438 95.9999 201 c 256
 95.9999 71 151 0 282 0 c 256
EndSplineSet
EndChar

StartChar: dotlessj
Encoding: -1 567 205
Width: 646
VWidth: 0
Flags: W
LayerCount: 2
Fore
SplineSet
235 -608 m 256
 486 -608 584 -281 606 -32 c 256
 620 128 589 267 554 384 c 257
 733 386 969.999 426 969.999 618 c 256
 969.999 658.92 953.333 692.667 912 672 c 257
 734 593 618 579 396 544 c 257
 466 704 l 258
 489 756 525 832 530 895 c 256
 533 932 511 960 470 960 c 256
 337 960 298 922 255 820 c 256
 158 592 57 278 33 0 c 256
 9.99999 -258 -8 -608 235 -608 c 256
287 -384 m 256
 234 -384 234 -258 240 -192 c 256
 260 39 306 246 358 447 c 257
 388 299 429 147 414 -32 c 256
 401 -187 379 -384 287 -384 c 256
EndSplineSet
EndChar

StartChar: e
Encoding: 69 101 208
Width: 842
VWidth: 0
Flags: W
PickledData: "(dp1
S'com.typemytype.robofont.layerData'
p2
(dp3
s."
AnchorPoint: "ogonek" 538 0 basechar 0
LayerCount: 2
Fore
SplineSet
461 -17 m 256
 710 -24 945 131 1037 257 c 256
 1102 345 995.999 419 952 376 c 256
 716 149 364 97.9999 299 300 c 257
 643 375 827 494 827 717 c 256
 827 873 706 966 552 966 c 256
 271 966 64 648 64 377 c 256
 64 105 261 -11 461 -17 c 256
283 430 m 257
 283 595 420 775 564 775 c 256
 612 775 656 751 649 681 c 256
 638 571 403 472 283 430 c 257
EndSplineSet
Substitution2: "'fina' Terminal Forms in Latin lookup 5 subtable" e.fina
Substitution2: "'init' Initial Forms in Latin lookup 4 subtable" e.init
EndChar

StartChar: eight
Encoding: 24 56 216
Width: 967
VWidth: 0
Flags: W
LayerCount: 2
Fore
SplineSet
447 -16 m 256
 682 -16 874 106 874 332 c 256
 874 534 735 645 625 735 c 257
 796 821 953 934 953 1192 c 256
 953 1382 785 1450 624 1450 c 256
 399 1450 179 1333 179 1083 c 256
 179 942 251 839 348 775 c 257
 205 678 51 559 51 305 c 256
 51 75 219 -16 447 -16 c 256
400 191 m 256
 332 191 290 256 290 328 c 256
 290 486 391 554 489 606 c 257
 533 552 579 489 579 390 c 256
 579 275 513 191 400 191 c 256
511 872 m 257
 462 919 420 994.999 420 1081 c 256
 420 1198 486 1272 577 1272 c 256
 647 1272 705 1223 705 1125 c 256
 705 1021 592 917 511 872 c 257
EndSplineSet
EndChar

StartChar: ellipsis
Encoding: 455 8230 217
Width: 1567
VWidth: 0
Flags: W
LayerCount: 2
Fore
SplineSet
484 0 m 256
 603 0 672 76 672 191 c 256
 672 297 611 353 503 353 c 256
 386 353 320 277 320 162 c 256
 320 55 378 0 484 0 c 256
900 0 m 256
 1019 0 1088 76 1088 191 c 256
 1088 297 1027 353 919 353 c 256
 802 353 736 277 736 162 c 256
 736 55 794 0 900 0 c 256
1316 0 m 256
 1435 0 1504 76 1504 191 c 256
 1504 297 1443 353 1335 353 c 256
 1218 353 1152 277 1152 162 c 256
 1152 55 1210 0 1316 0 c 256
EndSplineSet
EndChar

StartChar: emdash
Encoding: 445 8212 219
Width: 1120
VWidth: 0
Flags: W
LayerCount: 2
Fore
SplineSet
157 384 m 258
 931 384 l 258
 1016 384 1056 434 1056 518 c 256
 1056 587 1006 608 935 608 c 258
 185 608 l 258
 101 608 63 578 63 492 c 256
 63 430 96.9999 384 157 384 c 258
EndSplineSet
EndChar

StartChar: endash
Encoding: 444 8211 221
Width: 990
VWidth: 0
Flags: W
LayerCount: 2
Fore
SplineSet
159 384 m 258
 803 384 l 258
 888 384 928 434 928 518 c 256
 928 587 878 608 807 608 c 258
 187 608 l 258
 103 608 65 578 65 492 c 256
 65 430 98.9999 384 159 384 c 258
EndSplineSet
EndChar

StartChar: eng
Encoding: 266 331 222
Width: 987
VWidth: 0
Flags: W
LayerCount: 2
Fore
SplineSet
792 164 m 257
 857 346 l 258
 887 434 967 723 976 869 c 256
 978 912 941 960 863 960 c 256
 739 960 559 770 326 398 c 257
 353 522 412 762 445 860 c 256
 462 911 426 964 366 964 c 256
 294 964 259 918 237 861 c 256
 168 674 118 417 116 216 c 256
 115 107 107 0 208 0 c 256
 271 0 298 48 355 147 c 256
 506 410 636 589 760 672 c 257
 731 566 687 416 664 346 c 258
 568 77 l 257
 9 -212 -231 -672 93 -693 c 256
 300 -708 567 -483 760 19 c 257
 926 119 1046 146 1170 210 c 256
 1286 269 1260 361 1180 341 c 256
 1106 322 928 243 792 164 c 257
532 -98 m 257
 464 -247 280 -536 150 -516 c 256
 69 -504 212 -276 532 -98 c 257
EndSplineSet
EndChar

StartChar: equal
Encoding: 29 61 224
Width: 1707
VWidth: 0
Flags: W
LayerCount: 2
Fore
SplineSet
518 287 m 258
 1312 287 l 258
 1511 287 1621 320 1621 450 c 256
 1621 497 1588 512 1539 512 c 258
 1208 512 l 258
 1092 512 859 499 591 511 c 256
 479 516 349 505 349 415 c 256
 349 321 410 287 518 287 c 258
518 687 m 258
 1410 701 l 258
 1546 703 1656 734 1656 834 c 256
 1656 911 1626 931 1591 939 c 256
 1417 979 1235 917 887 925 c 258
 626 932 l 258
 514 935 384 919 384 809 c 256
 384 735 445 686 518 687 c 258
EndSplineSet
EndChar

StartChar: eth
Encoding: 175 240 226
Width: 1089
VWidth: 0
Flags: W
LayerCount: 2
Fore
SplineSet
510 0 m 256
 571 0 628 11 682 34 c 256
 979.999 161 1126 532 1126 958 c 256
 1126 1093 1102 1213 1062 1314 c 257
 1182 1366 l 258
 1229 1386 1267 1414 1267 1466 c 256
 1267 1520 1239 1567 1187 1567 c 256
 1167 1567 1150 1561 1136 1555 c 258
 970.999 1483 l 257
 871 1619 723 1729 491 1729 c 256
 410 1729 346 1696 346 1618 c 256
 346 1567 376 1506 426 1506 c 256
 569 1506 671 1461 743 1384 c 257
 577 1313 l 258
 541 1297 511 1277 511 1236 c 256
 511 1183 554 1126 609 1126 c 256
 623 1126 638 1129 653 1136 c 256
 715 1163 775 1190 837 1216 c 257
 860 1144 872 1063 872 967.999 c 258
 872 961 l 257
 807 980.999 733 990.999 645 990.999 c 256
 599 990.999 552 982.999 506 967 c 256
 297 895 64 693 64 416 c 256
 64 153 252 0 510 0 c 256
542 192 m 256
 388 192 290 266 290 416 c 256
 290 607 470 767 661 767 c 256
 740 767 797 753 847 729 c 257
 815 559 734 192 542 192 c 256
EndSplineSet
EndChar

StartChar: exclam
Encoding: 1 33 227
Width: 1132
VWidth: 0
Flags: W
LayerCount: 2
Fore
SplineSet
642 492 m 256
 675 492 694 504 716 562 c 258
 1095 1540 l 258
 1160 1709 1239 1875 1049 1896 c 256
 957 1906 896 1844 876 1758 c 258
 598 552 l 258
 596 545 596 540 596 537 c 256
 596 505 617 492 642 492 c 256
578 -2 m 256
 694 -2 759 81 759 191 c 256
 759 295 701 353 597 353 c 256
 480 353 414 277 414 162 c 256
 414 55 472 -2 578 -2 c 256
EndSplineSet
EndChar

StartChar: exclamdown
Encoding: 96 161 228
Width: 1184
VWidth: 0
Flags: W
LayerCount: 2
Fore
SplineSet
325 -12 m 256
 326 -12 326 -11 326 -10 c 256
 326 -9 324 -6 321 -2 c 257
 444 -2 513 51 541 150 c 256
 646 528 790 901 833 1342 c 256
 834 1349 835 1354 835 1357 c 256
 835 1382 814 1392 789 1392 c 256
 752 1392 711 1374 705 1342 c 257
 569 1021 432 743 322 424 c 256
 286 320 246 217 246 92.9999 c 256
 246 45 315 -12 325 -12 c 256
820 1501 m 256
 937 1501 1003 1577 1003 1692 c 256
 1003 1799 945 1856 839 1856 c 256
 723 1856 658 1773 658 1663 c 256
 658 1559 716 1501 820 1501 c 256
EndSplineSet
EndChar

StartChar: f
Encoding: 70 102 229
Width: 742
VWidth: 0
Flags: W
PickledData: "(dp1
S'com.typemytype.robofont.layerData'
p2
(dp3
s."
LayerCount: 2
Fore
SplineSet
289 -704 m 256
 545 -655 652 -367 652 -129 c 256
 652 54 589 305 533 427 c 257
 735 434 1009 453 1009 652 c 256
 1009 691 996 721 973 721 c 256
 967 721 962 719 955 715 c 256
 817 638 745 587 578 587 c 256
 539 587 493 593 464 603 c 257
 661 833 1001 1243 1001 1624 c 256
 1001 1762 926 1856 801 1856 c 256
 245 1856 53 381 53 -178 c 256
 53 -416 81 -744 289 -704 c 256
322 -518 m 256
 274 -518 270 -318 270 -173 c 256
 270 26 292 323 302 523 c 257
 390 380 468 71 468 -183 c 258
 468 -188 l 258
 468 -304 466 -518 322 -518 c 256
349 686 m 257
 375 775 535 1631 764 1631 c 256
 805 1631 814 1583 814 1529 c 256
 814 1243 421 770 349 686 c 257
EndSplineSet
Substitution2: "'fina' Terminal Forms in Latin lookup 5 subtable" f.fina
Substitution2: "'init' Initial Forms in Latin lookup 4 subtable" f.init
EndChar

StartChar: five
Encoding: 21 53 232
Width: 1157
VWidth: 0
Flags: W
LayerCount: 2
Fore
SplineSet
489 0 m 256
 769 0 1029 155 1029 465 c 256
 1029 881 687 895 403 869 c 257
 380 968 373 1042 380 1125 c 257
 594 1129 580 1101 756 1087 c 257
 930 1080 1087 1127 1087 1263 c 256
 1087 1375 1018 1419 1003 1401 c 257
 962 1361 866 1345 795 1345 c 256
 622 1345 558 1393 354 1393 c 256
 240 1393 237 1153 238 840 c 256
 238 720 258 700 343 690 c 256
 561 663 713 622 713 399 c 256
 713 243 576 164 482 164 c 256
 374 164 300 199 300 298 c 256
 300 413 369 414 369 459 c 256
 369 522 276 539 239 539 c 256
 121 539 70 484 70 361 c 256
 70 119 291 0 489 0 c 256
EndSplineSet
EndChar

StartChar: florin
Encoding: 318 402 234
Width: 1314
VWidth: 0
Flags: W
LayerCount: 2
Fore
SplineSet
214 -128 m 256
 665 -128 689 486 771 864 c 257
 1068 864 l 258
 1124 864 1164 901 1164 960 c 256
 1164 1022 1129 1056 1068 1056 c 258
 801 1056 l 257
 836 1256 878 1613 1089 1613 c 256
 1162 1613 1199 1542 1267 1542 c 256
 1333 1542 1377 1621 1377 1686 c 256
 1377 1795 1231 1837 1123 1837 c 256
 705 1837 618 1425 566 1056 c 257
 513 1056 458 1062 410 1062 c 256
 329 1062 268 1046 268 960 c 256
 268 894 297 864 364 864 c 258
 536 864 l 257
 523 760 509 668 495 590 c 256
 463 411 428 95.9999 228 95.9999 c 256
 180 95.9999 163 167 120 167 c 256
 54 167 9.99999 88 9.99999 23 c 256
 9.99999 -78 116 -128 214 -128 c 256
EndSplineSet
EndChar

StartChar: four
Encoding: 20 52 235
Width: 927
VWidth: 0
Flags: W
LayerCount: 2
Fore
SplineSet
597 -45 m 256
 652 -45 714 -38 770 -38 c 256
 781 -38 785 -37 785 -28 c 256
 785 28 693 65 693 130 c 258
 693 149 l 257
 696 190 706 231 715 269 c 257
 771 267 826 264 881 264 c 256
 928 264 941 341 941 397 c 256
 941 418 936 437 917 437 c 256
 865 437 812 423 759 414 c 257
 785 493 836 583 836 674 c 256
 836 718 807 730 756 730 c 256
 686 730 628 691 612 633 c 256
 590 555 560 472 535 391 c 257
 522 391 l 258
 483 391 454 392 411 394 c 257
 497 587 622 779 622 1019 c 256
 622 1050 535 1052 499 1052 c 256
 430 1052 325 1044 313 991.999 c 256
 262 764 218 565 144 372 c 257
 119 335 86 287 86 237 c 256
 86 212 95.9999 192 120 192 c 256
 259 192 347 273 501 273 c 257
 485 210 466 140 466 71 c 256
 466 -18 508 -45 597 -45 c 256
EndSplineSet
EndChar

StartChar: fraction
Encoding: 459 8260 237
Width: 1248
VWidth: 0
Flags: W
LayerCount: 2
Fore
SplineSet
341 -33 m 256
 432 -33 482 2 514 64 c 256
 766 563 966 1119 1196 1622 c 256
 1212 1659 1248 1714 1248 1760 c 256
 1248 1814 1240 1856 1184 1856 c 256
 1059 1856 967.999 1782 928 1696 c 256
 720 1239 507 755 304 295 c 256
 266 210 222 152 222 55 c 256
 222 -18 269 -33 341 -33 c 256
EndSplineSet
EndChar

StartChar: g
Encoding: 71 103 238
Width: 1007
VWidth: 0
Flags: W
PickledData: "(dp1
S'com.typemytype.robofont.layerData'
p2
(dp3
s."
LayerCount: 2
Fore
SplineSet
184 -928 m 256
 327 -928 440 -864 547 -738 c 256
 656 -609 726 -360 782 -109 c 257
 987 30 1113 87 1252 163 c 256
 1382 234 1288 365 1196 341 c 256
 1110 319 949 213 809 98 c 257
 970 795 l 258
 987 868 903 925 805 885 c 256
 804 885 814 953 703 956 c 256
 384 965 80 648 80 281 c 256
 80 123 185 0 350 0 c 256
 449 0 568 57 621 136 c 257
 591 -5 l 257
 439 -121 261 -237 137 -378 c 256
 59 -466 -58 -588 -58 -729 c 256
 -58 -870 37 -928 184 -928 c 256
424 192 m 256
 340 192 321 260 321 324 c 256
 321 508 510 773 757 773 c 257
 677 474 l 258
 651 380 593 192 424 192 c 256
169 -768 m 256
 138 -768 124 -736 124 -709 c 256
 124 -547 359 -373 580 -188 c 257
 543 -362 398 -768 169 -768 c 256
EndSplineSet
Substitution2: "'fina' Terminal Forms in Latin lookup 5 subtable" g.fina
Substitution2: "'init' Initial Forms in Latin lookup 4 subtable" g.init
EndChar

StartChar: germandbls
Encoding: 158 223 245
Width: 1281
VWidth: 0
Flags: W
LayerCount: 2
Fore
SplineSet
191 -158 m 256
 268 -158 332 -117 332 -39 c 256
 332 25 330 87 330 159 c 256
 330 650 337 1404 836 1404 c 256
 960 1404 1069 1355 1069 1232 c 256
 1069 1043 896 961 703 961 c 256
 616 961 600 931 600 844 c 256
 600 790 629 763 668 746 c 256
 830 674 1037 724 1037 489 c 256
 1037 282 841 211 633 211 c 256
 573 211 517 219 468 234 c 257
 442 52 l 257
 514 26 595 3 685 3 c 256
 987.999 3 1261 161 1261 454 c 256
 1261 703 1079 846 824 846 c 257
 1086 852 1293 981.999 1293 1240 c 256
 1293 1473 1076 1598 834 1598 c 256
 751 1598 678 1585 612 1558 c 256
 123 1359 64 609 64 -68 c 256
 64 -129 127 -158 191 -158 c 256
EndSplineSet
EndChar

StartChar: grave
Encoding: 64 96 246
Width: 609
VWidth: 0
Flags: W
PickledData: "(dp1
S'com.typemytype.robofont.layerData'
p2
(dp3
s."
LayerCount: 2
Fore
SplineSet
380 2348 m 258
 127 2758 l 258
 41 2904 -187 2734 -54 2608 c 258
 296 2276 l 258
 358 2217 434 2263 380 2348 c 258
EndSplineSet
EndChar

StartChar: greater
Encoding: 30 62 247
Width: 1184
VWidth: 0
Flags: W
LayerCount: 2
Fore
SplineSet
266 106 m 256
 386 106 495 170 590 210 c 256
 801 299 1134 340 1134 626 c 256
 1134 791 951 808 836 863 c 256
 768 895 688 925 610 957 c 256
 508 998.999 369 1085 248 1085 c 256
 168 1085 138 999.999 138 922 c 256
 138 867 172 846 216 832 c 258
 938 613 l 257
 253 353 l 258
 201 333 163 260 163 185 c 256
 163 132 210 106 266 106 c 256
EndSplineSet
EndChar

StartChar: guillemotleft
Encoding: 106 171 249
Width: 1440
VWidth: 0
Flags: W
LayerCount: 2
Fore
SplineSet
702 73 m 256
 756 73 814 107 814 158 c 256
 814 240 732 274 689 313 c 258
 420 544 l 257
 746 773 l 258
 790 805 845 838 845 896 c 256
 845 958 795 998.999 733 998.999 c 256
 647 998.999 591 927 532 884 c 256
 427 809 192 710 192 533 c 256
 192 467 227 424 268 385 c 256
 387 272 485 173 638 87 c 256
 659 75 682 73 702 73 c 256
1278 73 m 256
 1332 73 1390 107 1390 158 c 256
 1390 240 1308 274 1265 313 c 258
 995.999 544 l 257
 1322 773 l 258
 1366 805 1421 838 1421 896 c 256
 1421 958 1371 998.999 1309 998.999 c 256
 1223 998.999 1167 927 1108 884 c 256
 1003 809 768 710 768 533 c 256
 768 467 803 424 844 385 c 256
 963 272 1061 173 1214 87 c 256
 1235 75 1258 73 1278 73 c 256
EndSplineSet
EndChar

StartChar: guillemotright
Encoding: 122 187 250
Width: 1440
VWidth: 0
Flags: W
LayerCount: 2
Fore
SplineSet
335 73 m 256
 355 73 378 75 399 87 c 256
 518 154 612 229 700 318 c 256
 755 374 845 431 845 533 c 256
 845 654 735 731 655 778 c 256
 607 806 554 849 505 884 c 256
 450 924 385 998.999 304 998.999 c 256
 242 998.999 192 958 192 896 c 256
 192 838 247 805 291 773 c 258
 617 544 l 257
 348 313 l 258
 303 274 223 243 223 158 c 256
 223 107 281 73 335 73 c 256
911 73 m 256
 931 73 954 75 974.999 87 c 256
 1094 154 1188 229 1276 318 c 256
 1331 374 1421 431 1421 533 c 256
 1421 654 1311 731 1231 778 c 256
 1183 806 1130 849 1081 884 c 256
 1026 924 961 998.999 880 998.999 c 256
 818 998.999 768 958 768 896 c 256
 768 838 823 805 867 773 c 258
 1193 544 l 257
 924 313 l 258
 879 274 799 243 799 158 c 256
 799 107 857 73 911 73 c 256
EndSplineSet
EndChar

StartChar: guilsinglleft
Encoding: 457 8249 251
Width: 1089
VWidth: 0
Flags: W
LayerCount: 2
Fore
SplineSet
802 73 m 256
 856 73 914 107 914 158 c 256
 914 235 845 291 789 313 c 257
 320 544 l 257
 846 773 l 258
 898 796 945 835 945 896 c 256
 945 958 895 998.999 833 998.999 c 256
 813 998.999 796 994.999 780 987.999 c 258
 282 778 l 258
 189 739 81 667 81 540 c 256
 81 469 121 415 168 385 c 256
 347 268 517 170 738 87 c 256
 761 78 782 73 802 73 c 256
EndSplineSet
EndChar

StartChar: guilsinglright
Encoding: 458 8250 252
Width: 1089
VWidth: 0
Flags: W
LayerCount: 2
Fore
SplineSet
318 73 m 256
 338 73 359 78 382 87 c 256
 563 165 737 262 896 352 c 256
 974.999 398 1039 452 1039 570 c 256
 1039 678 937 740 838 778 c 258
 340 987.999 l 258
 324 994.999 307 998.999 287 998.999 c 256
 225 998.999 175 958 175 896 c 256
 175 835 222 797 274 773 c 258
 800 544 l 257
 331 313 l 258
 277 287 206 236 206 158 c 256
 206 107 264 73 318 73 c 256
EndSplineSet
EndChar

StartChar: h
Encoding: 72 104 253
Width: 1111
VWidth: 0
Flags: W
LayerCount: 2
Fore
SplineSet
175 0 m 256
 273 -17 295 38 321 113 c 256
 392 314 582 544 711 640 c 256
 871 759 636 429 627 185 c 256
 622 34 728 -20 846 0 c 256
 1031 31 1189 123 1298 196 c 256
 1343 228 1359 271 1358 311 c 256
 1356 367 1321 415 1281 415 c 256
 1272 415 1263 412 1255 407 c 257
 1227 383 976 194 891 194 c 256
 874 194 864 200 864 213 c 256
 858 347 1000 606 1067 807 c 256
 1097 897 1022 966 918 966 c 256
 820 966 552 817 339 440 c 257
 381 731 l 257
 920 1214 1058 1496 1082 1726 c 257
 1090 1874 1005 1982 856 1982 c 256
 349 1982 115 900 86 333 c 256
 80 236 71 18 175 0 c 256
392 918 m 257
 423 1131 591 1781 809 1740 c 256
 839 1734 849 1714 848 1670 c 256
 838 1496 593 1131 392 918 c 257
EndSplineSet
Substitution2: "'fina' Terminal Forms in Latin lookup 5 subtable" h.fina
EndChar

StartChar: hungarumlaut
Encoding: 406 733 256
Width: 1024
VWidth: 0
Flags: W
LayerCount: 2
Fore
SplineSet
253 2322 m 258
 583 2770 l 258
 704 2934 470 3084 384 2903 c 258
 142 2392 l 258
 104 2313 205 2256 253 2322 c 258
693 2292 m 258
 1123 2770 l 258
 1257 2919 1032 3074 924 2903 c 258
 582 2362 l 258
 536 2289 639 2232 693 2292 c 258
EndSplineSet
EndChar

StartChar: hyphen
Encoding: 13 45 257
Width: 1074
VWidth: 0
Flags: W
AnchorPoint: "mid" 615 953 mark 0
LayerCount: 2
Fore
SplineSet
280 753 m 256
 402 811 486 863 865 917 c 256
 931 926 951 948 951 992 c 256
 951 1054 904 1068 858 1068 c 257
 185 1026 151 896 172 813 c 256
 184 766 229 729 280 753 c 256
EndSplineSet
EndChar

StartChar: i
Encoding: 73 105 258
Width: 601
VWidth: 0
Flags: W
PickledData: "(dp1
S'com.typemytype.robofont.layerData'
p2
(dp3
s."
AnchorPoint: "ogonek" 0 0 basechar 0
LayerCount: 2
Fore
SplineSet
356 -6 m 256
 510 -27 698 57 855 247 c 256
 875 272 886 286 887 307 c 256
 890 368 843 404 793 403 c 256
 772 403 756 393 741 375 c 256
 516 118 342 124 342 315 c 256
 342 457 435 724 509 863 c 256
 538 917 470 960 422 960 c 256
 359 960 315 951 273 873 c 256
 192 722 114 458 114 282 c 256
 114 124 212 14 356 -6 c 256
544 1152 m 256
 654 1152 728 1218 728 1331 c 256
 728 1429 660 1471 568 1471 c 256
 458 1471 372 1408 372 1304 c 256
 372 1203 437 1152 544 1152 c 256
EndSplineSet
EndChar

StartChar: j
Encoding: 74 106 270
Width: 646
VWidth: 0
Flags: W
LayerCount: 2
Fore
SplineSet
235 -608 m 256
 486 -608 584 -281 606 -32 c 256
 620 128 589 267 554 384 c 257
 733 386 969.999 426 969.999 618 c 256
 969.999 658.92 953.333 692.667 912 672 c 257
 734 593 618 579 396 544 c 257
 466 704 l 258
 489 756 525 832 530 895 c 256
 533 932 511 960 470 960 c 256
 337 960 298 922 255 820 c 256
 158 592 57 278 33 0 c 256
 9.99999 -258 -8 -608 235 -608 c 256
287 -384 m 256
 234 -384 234 -258 240 -192 c 256
 260 39 306 246 358 447 c 257
 388 299 429 147 414 -32 c 256
 401.075 -187 379 -384 287 -384 c 256
562 1152 m 256
 672 1152 746 1218 746 1331 c 256
 746 1429 678 1471 586 1471 c 256
 476 1471 390 1408 390 1304 c 256
 390 1203 455 1152 562 1152 c 256
EndSplineSet
EndChar

StartChar: k
Encoding: 75 107 272
Width: 1265
VWidth: 0
Flags: W
LayerCount: 2
Fore
SplineSet
949 -20 m 256
 1141 -20 1365 156 1454 293 c 256
 1502 367 1409 499 1352 419 c 256
 1255 285 1112 173 1015 158 c 256
 926 145 887 167 896 225 c 256
 927 415 1256 462 1278 723 c 256
 1289 854 1222 939 1087 941 c 256
 841 944 604 708 333 224 c 257
 333 276 362 520 378 604 c 257
 499 710 1089 1315 1089 1696 c 256
 1089 1823 1018 1920 884 1920 c 256
 299 1920 136 671 136 230 c 256
 136 134 154 -11 241 -11 c 256
 498 -11 711 690 1001 690 c 256
 1035 690 1037 660 1035 644 c 256
 1023 532 678 424 703 184 c 256
 720 22 864 -20 949 -20 c 256
406 803 m 257
 452 1100 621 1680 813 1680 c 256
 850 1680 865 1662 865 1620 c 256
 865 1383 609 1027 406 803 c 257
EndSplineSet
Substitution2: "'init' Initial Forms in Latin lookup 4 subtable" k.init
EndChar

StartChar: l
Encoding: 76 108 275
Width: 729
VWidth: 0
Flags: W
LayerCount: 2
Fore
SplineSet
453 -9 m 256
 618 -9 767 62 929 243 c 256
 1028 352 885 450 826 383 c 256
 725 269 607 177 502 177 c 256
 350 177 349 392 372 560 c 257
 684 801 1038 1275 1076 1696 c 256
 1088 1818 1012 1920 883 1920 c 256
 463 1920 200 1032 151 526 c 257
 126 205 232 -9 453 -9 c 256
394 772 m 257
 443 1069 626 1680 811 1680 c 256
 847 1680 861 1662 860 1620 c 256
 856 1383 593 996 394 772 c 257
EndSplineSet
Substitution2: "'fina' Terminal Forms in Latin lookup 5 subtable" l.fina
Substitution2: "'init' Initial Forms in Latin lookup 4 subtable" l.init
EndChar

StartChar: less
Encoding: 28 60 280
Width: 1184
VWidth: 0
Flags: W
LayerCount: 2
Fore
SplineSet
936 126 m 256
 991.999 126 1039 153 1039 205 c 256
 1039 287 968.999 351 909 373 c 258
 254 613 l 257
 1056 872 l 258
 1100 885 1134 907 1134 962 c 256
 1134 1040 1104 1125 1024 1125 c 256
 1009 1125 994.999 1123 979.999 1118 c 256
 785 1055 576 960 394 880 c 256
 274 827 58 798 58 626 c 256
 58 388 300 340 493 275 c 256
 629 229 771 126 936 126 c 256
EndSplineSet
EndChar

StartChar: logicalnot
Encoding: 107 172 283
Width: 1216
VWidth: 0
Flags: W
LayerCount: 2
Fore
SplineSet
911 220 m 256
 978.999 220 1011 286 1015 353 c 258
 1035 685 l 257
 1035 691 l 258
 1035 741 995.999 768 940 768 c 258
 309 768 l 258
 237 768 170 734 170 666 c 256
 170 604 228 576 293 576 c 258
 836 576 l 257
 823 349 l 258
 823 344 822 341 822 336 c 256
 822 273 851 220 911 220 c 256
EndSplineSet
EndChar

StartChar: lslash
Encoding: 257 322 285
Width: 575
VWidth: 0
Flags: W
LayerCount: 2
Fore
SplineSet
351 0 m 256
 374 0 398 4 424 9.99999 c 256
 590 50 715 137 840 227 c 257
 758 437 l 257
 712 400 668 368 626 340 c 256
 573 305 499 244 418 244 c 256
 362 244 352 397 352 461 c 256
 352 498 355 546 370 565 c 256
 433 644 496 729 556 821 c 256
 627 930 703 1054 762 1193 c 257
 858 1214 l 258
 949 1234 1060 1237 1060 1338 c 256
 1060 1397 1035 1434 978.999 1434 c 256
 967 1434 956 1433 947 1430 c 257
 910 1422 872 1413 834 1405 c 257
 857 1496 871 1593 871 1694 c 256
 871 1810 842 1920 727 1920 c 256
 587 1920 494 1837 424 1748 c 256
 326 1624 249 1459 194 1269 c 257
 88 1252 -99 1237 -99 1144 c 256
 -99 1087 -65 1031 -5 1031 c 256
 3 1031 12 1032 22 1034 c 256
 62 1042 103 1051 144 1060 c 257
 111 888 93.9999 703 93.9999 519 c 256
 93.9999 320 161 0 351 0 c 256
422 1316 m 257
 472 1495 546 1641 652 1641 c 256
 673 1641 683 1620 683 1593 c 256
 683 1520 650 1425 628 1360 c 257
 559 1345 490 1331 422 1316 c 257
342 740 m 257
 342 825 353 965 377 1110 c 257
 434 1122 490 1134 547 1146 c 257
 485 1002 414 866 342 740 c 257
EndSplineSet
EndChar

StartChar: m
Encoding: 77 109 286
Width: 1447
VWidth: 0
Flags: W
PickledData: "(dp1
S'com.typemytype.robofont.layerData'
p2
(dp3
s."
LayerCount: 2
Fore
SplineSet
1291 -7 m 256
 1414 -5 1623 101 1755 281 c 256
 1782 320 1675 420 1631 375 c 256
 1528 276 1428 207 1374 192 c 257
 1373 192 l 257
 1305 178 1280 211 1289 275 c 256
 1302 386 1390 729 1388 874 c 256
 1387 923 1350 966 1280 963 c 257
 1279 963 l 258
 1156 963 987 768 808 300 c 257
 843 497 907 801 907 872 c 256
 907 930 850 960 801 960 c 256
 697 960 503 762 315 295 c 257
 350 469 436 828 436 874 c 256
 436 933 400 964 356 964 c 256
 302 964 260 923 241 866 c 256
 180 686 133 431.129 133 201 c 256
 133 89.8122 152 -2 246 -2 c 256
 281 -2 328 20 411 185 c 256
 533 427 609 570 746 749 c 257
 695 510 663 378 641 179 c 256
 632 93 636 10 732 -2 c 256
 773 -7 815 15 851 96 c 256
 956 331 1097 569 1229 763 c 257
 1208 677 l 258
 1187 576 1119 329 1111 211 c 256
 1100 61 1150 -9 1291 -7 c 256
EndSplineSet
Substitution2: "'fina' Terminal Forms in Latin lookup 5 subtable" m.fina
Substitution2: "'init' Initial Forms in Latin lookup 4 subtable" m.init
EndChar

StartChar: macron
Encoding: 110 175 287
Width: 600
VWidth: 0
Flags: W
LayerCount: 2
Fore
SplineSet
13 2334 m 256
 135 2392 219 2444 598 2498 c 256
 664 2507 684 2529 684 2573 c 256
 684 2635 637 2649 591 2649 c 257
 -82 2607 -116 2477 -95 2394 c 256
 -83 2347 -38 2310 13 2334 c 256
EndSplineSet
EndChar

StartChar: minus
Encoding: 471 8722 289
Width: 1216
VWidth: 0
Flags: W
LayerCount: 2
Fore
SplineSet
315 576 m 258
 917 576 l 258
 987.999 576 1024 618 1024 691 c 256
 1024 741 984.999 768 929 768 c 258
 331 768 l 258
 259 768 192 734 192 666 c 256
 192 604 250 576 315 576 c 258
EndSplineSet
EndChar

StartChar: multiply
Encoding: 150 215 291
Width: 1280
VWidth: 0
Flags: W
LayerCount: 2
Fore
SplineSet
940 168 m 256
 987.999 168 1024 204 1024 252 c 256
 1024 295 999.999 328 973.999 354 c 257
 827 512 l 257
 979.999 675 l 258
 1002 697 1017 723 1017 761 c 256
 1017 813 983.999 860 932 860 c 256
 900 860 877 843 858 824 c 257
 691 638 l 257
 518 822 l 258
 494 847 469 858 444 858 c 256
 392 858 359 812 359 759 c 256
 359 721 374 695 396 673 c 258
 557 512 l 257
 402 356 l 258
 376 330 352 297 352 254 c 256
 352 206 388 170 436 170 c 256
 479 170 508 192 534 218 c 258
 691 386 l 257
 841 216 l 258
 866 188 897 168 940 168 c 256
EndSplineSet
EndChar

StartChar: n
Encoding: 78 110 292
Width: 987
VWidth: 0
Flags: W
PickledData: "(dp1
S'com.typemytype.robofont.layerData'
p2
(dp3
s."
LayerCount: 2
Fore
SplineSet
806 -12 m 256
 904 -12 1151 98 1290 276 c 256
 1318 312 1210 422 1155 370 c 256
 1043 265 944 198 897 187 c 256
 843 174 824 203 837 270 c 256
 858 381 967 723 976 869 c 256
 978 912 941 960 863 960 c 256
 739 960 559 770 326 398 c 257
 353 522 412 762 445 860 c 256
 462 911 426 964 366 964 c 256
 294 964 259 918 237 861 c 256
 168 674 118 417 116 216 c 256
 115 107 107 0 208 0 c 256
 271 0 298 48 355 147 c 256
 506 410 636 589 760 672 c 257
 731 566 648 320 632 206 c 256
 612 57 658 -12 806 -12 c 256
EndSplineSet
Substitution2: "'fina' Terminal Forms in Latin lookup 5 subtable" n.fina
Substitution2: "'init' Initial Forms in Latin lookup 4 subtable" n.init
EndChar

StartChar: nine
Encoding: 25 57 297
Width: 1209
VWidth: 0
Flags: W
LayerCount: 2
Fore
SplineSet
288 -131 m 256
 322 -131 347 -120 377 -106 c 256
 728 64 1127 397 1127 916 c 256
 1127 1234 946 1421 658 1421 c 256
 349 1421 95.9999 1206 95.9999 893 c 256
 95.9999 652 252 495 440 495 c 256
 582 495 676 548 753 604 c 257
 636 371 474 193 251 62 c 256
 210 37 181 3 181 -46 c 256
 181 -97 225 -131 288 -131 c 256
586 673 m 256
 456 673 391 748 391 874 c 256
 391 1038 487 1234 653 1234 c 256
 795 1234 843 1102 843 965 c 256
 843 788 778 673 586 673 c 256
EndSplineSet
EndChar

StartChar: numbersign
Encoding: 3 35 301
Width: 1248
VWidth: 0
Flags: W
LayerCount: 2
Fore
SplineSet
257 -35 m 256
 329 -35 361 1 387 51 c 256
 453 182 515 313 576 445 c 257
 685 445 795 446 900 447 c 257
 782 111 779 109 779 60 c 256
 779 -8 819 -31 885 -31 c 256
 954 -31 985.999 3 1007 55 c 256
 1061 186 1112 316 1161 448 c 257
 1164 448 l 258
 1298 448 1410 481 1410 609 c 256
 1410 655 1373 669 1328 673 c 257
 1241 673 l 257
 1275 769 1308 864 1339 960 c 257
 1515 960 1621 989 1621 1123 c 256
 1621 1170 1588 1185 1539 1185 c 258
 1413 1185 l 257
 1444 1325 1533 1467 1533 1550 c 256
 1533 1596 1521 1635 1468 1635 c 256
 1250 1635 1222 1352 1163 1185 c 257
 1074 1185 981.999 1184 894 1184 c 257
 939 1291 1044 1513 1044 1546 c 256
 1044 1594 1036 1631 986.999 1631 c 256
 885 1631 812 1562 782 1490 c 258
 644 1184 l 257
 475 1184 349 1182 349 1068 c 256
 349 982 404 960 545 960 c 257
 416 672 l 257
 268 672 166 662 166 556 c 256
 166 482 259 450 332 450 c 257
 332 450 211 234 173 93 c 256
 143 -16 198 -35 257 -35 c 256
676 669 m 257
 719 768 759 863 800 960 c 257
 1083 960 l 257
 1014 765 996.999 717 979.999 670 c 257
 929 669 878 669 676 669 c 257
EndSplineSet
EndChar

StartChar: o
Encoding: 79 111 302
Width: 943
VWidth: 0
Flags: W
PickledData: "(dp1
S'com.typemytype.robofont.layerData'
p2
(dp3
s."
AnchorPoint: "ogonek" 9 0 basechar 0
LayerCount: 2
Fore
SplineSet
405 -16 m 256
 699 -16 806 220 846 374 c 257
 1106 444 1246 592 1331 696 c 256
 1372 746 1295 857 1252 809 c 256
 1166 712 1037 591 873 563 c 257
 924 790 785 966 597 966 c 256
 313 966 73 672 73 353 c 256
 73 148 205 -16 405 -16 c 256
448 172 m 256
 336 172 299 258 299 365 c 256
 299 537 412 766 569 766 c 256
 632 766 634 694 634 694 c 257
 520 586 535 490 665 428 c 257
 654 321 558 172 448 172 c 256
EndSplineSet
Substitution2: "'fina' Terminal Forms in Latin lookup 5 subtable" o.fina
Substitution2: "Single Substitution lookup 3 subtable" ordmasculine
EndChar

StartChar: oe
Encoding: 274 339 307
Width: 1301
VWidth: 0
Flags: W
LayerCount: 2
Fore
SplineSet
394 0 m 256
 545 0 652 119 704 224 c 257
 735 102 829 0 979.999 0 c 256
 1259 0 1452 173 1595 321 c 257
 1466 455 l 257
 1363 355 1189 212 995.999 212 c 256
 925 212 897 255 870 303 c 257
 1050 353 1275 486 1275 709 c 256
 1275 863 1166 959 1012 959 c 256
 891 959 799 895 736 768 c 257
 683 870 609 958 481 958 c 256
 447 958 413 951 379 937 c 256
 210 867 64 674 64 437 c 256
 64 206 163 0 394 0 c 256
433 192 m 256
 324 192 288 287 288 396 c 256
 288 538 356 768 491 768 c 256
 587 768 608 650 608 551 c 256
 608 425 551 192 433 192 c 256
847 470 m 257
 847 618 884 768 1034 768 c 256
 1074 768 1091 711 1091 665 c 256
 1091 569 946 470 847 470 c 257
EndSplineSet
EndChar

StartChar: ogonek
Encoding: 404 731 308
Width: 537
VWidth: 0
Flags: W
PickledData: "(dp1
S'com.typemytype.robofont.layerData'
p2
(dp3
s."
AnchorPoint: "ogonek" 358 0 mark 0
LayerCount: 2
Fore
SplineSet
288 -448 m 256
 358 -451 474 -433 554 -362 c 256
 571 -347 573 -315 573 -286 c 256
 573 -256 555 -200 531 -218 c 256
 394 -319 311 -293 304 -236 c 256
 292 -136 395 -18 434 24 c 257
 354 24 l 257
 226 -51 118 -160 128 -292 c 256
 135 -391 186 -444 288 -448 c 256
EndSplineSet
EndChar

StartChar: one
Encoding: 17 49 312
Width: 682
VWidth: 0
Flags: W
LayerCount: 2
Fore
SplineSet
317 0 m 256
 358 0 396 24 403 56 c 256
 484 476 583 891 647 1316 c 256
 649 1327 649 1337 649 1346 c 256
 649 1429 581 1464 515 1442 c 256
 377 1395 288 1346 64 1258 c 256
 43 1250 14 1240 14 1192 c 256
 14 1133 56 1077 119 1105 c 256
 170 1128 365 1209 365 1209 c 257
 288 829 198 414 130 107 c 257
 122 93.9999 121 87 121 71 c 256
 121 8 235 0 317 0 c 256
EndSplineSet
EndChar

StartChar: onehalf
Encoding: 124 189 313
Width: 1729
VWidth: 0
Flags: W
LayerCount: 2
Fore
SplineSet
1072 0.999999 m 256
 1175 0.999999 1257 46 1324 93.9999 c 257
 1387 54 1469 0.999999 1561 0.999999 c 256
 1691 0.999999 1743 124 1743 246 c 256
 1743 273 1722 273 1691 273 c 256
 1656 273 1635 188 1592 188 c 256
 1537 188 1493 197 1453 213 c 257
 1531 304 1630 444 1630 598 c 256
 1630 812 1469 927 1260 927 c 256
 1084 927 874 831 874 663 c 256
 874 600 906 560 946 529 c 257
 958 529 965 528 970.999 519 c 257
 1025 519 1208 541 1208 587 c 256
 1208 617 1119 619 1119 660 c 256
 1119 722 1178 756 1241 756 c 256
 1335 756 1366 682 1366 583 c 256
 1366 476 1308 378 1257 312 c 257
 1189 343 1117 368 1016 368 c 256
 905 368 833 289 833 181 c 256
 833 67 954 0.999999 1072 0.999999 c 256
361 770 m 256
 516 770 532 1134 552 1241 c 256
 575 1365 608 1461 608 1563 c 256
 608 1629 552 1666 486 1666 c 256
 392 1666 288 1620 230 1606 c 256
 157 1588 55 1581 55 1506 c 256
 55 1460 90 1413 136 1413 c 256
 141 1413 146 1415 152 1416 c 257
 153 1416 l 257
 365 1472 l 257
 325 1289 285 1092 246 903 c 257
 247 903 l 257
 245 890 242 879 242 866 c 256
 242 797 292 770 361 770 c 256
437 231 m 256
 484 231 518 260 539 294 c 256
 741 620 923 965 1113 1288 c 256
 1133 1322 1151 1359 1151 1402 c 256
 1151 1450 1118 1472 1072 1472 c 256
 1016 1472 963 1444 941 1408 c 256
 760 1113 585 788 416 484 c 256
 385 428 349 394 349 323 c 256
 349 269 386 231 437 231 c 256
1059 166 m 256
 1036 166 1003 183 1003 205 c 256
 1003 227 1043 230 1075 230 c 256
 1103 230 1128 216 1150 205 c 257
 1115 179 1084 166 1059 166 c 256
EndSplineSet
Ligature2: "'frac' Diagonal Fractions in Latin lookup 0 subtable" one slash two
EndChar

StartChar: onequarter
Encoding: 123 188 314
Width: 1759
VWidth: 0
Flags: W
LayerCount: 2
Fore
SplineSet
1394 -45 m 256
 1445 -45 1502 -39 1554 -39 c 256
 1564 -39 1568 -38 1568 -30 c 256
 1568 20 1483 52 1483 110 c 258
 1483 127 l 257
 1486 158 1492 193 1503 234 c 257
 1555 232 1606 229 1657 229 c 256
 1700 229 1712 297 1712 347 c 256
 1712 366 1708 383 1690 383 c 256
 1642 383 1593 371 1544 362 c 257
 1568 431 1615 512 1615 593 c 256
 1615 633 1588 642 1541 642 c 256
 1389 642 1374 457 1336 342 c 257
 1324 342 l 258
 1288 342 1262 343 1222 344 c 257
 1301 514 1417 685 1417 899 c 256
 1417 926 1335 928 1303 928 c 256
 1241 928 1142 922 1131 875 c 256
 1084 672 1049 493 973.999 325 c 256
 958 289 921 249 921 205 c 256
 921 182 929 165 952 165 c 256
 1081 165 1164 237 1305 237 c 257
 1290 182 1273 118 1273 58 c 256
 1273 -23 1314 -45 1394 -45 c 256
361 704 m 256
 516 704 532 1068 552 1175 c 256
 575 1299 608 1395 608 1497 c 256
 608 1563 552 1600 486 1600 c 256
 392 1600 288 1554 230 1540 c 256
 157 1522 55 1515 55 1440 c 256
 55 1394 90 1347 136 1347 c 256
 141 1347 146 1349 152 1350 c 257
 153 1350 l 257
 365 1406 l 257
 325 1223 285 1026 246 837 c 257
 247 837 l 257
 245 824 242 813 242 800 c 256
 242 731 292 704 361 704 c 256
488 231 m 256
 535 231 569 260 590 294 c 256
 792 620 973.999 965 1164 1288 c 256
 1184 1322 1202 1359 1202 1402 c 256
 1202 1450 1169 1472 1123 1472 c 256
 1067 1472 1014 1444 991.999 1408 c 256
 811 1113 637 788 468 484 c 256
 437 428 400 394 400 323 c 256
 400 269 437 231 488 231 c 256
EndSplineSet
Ligature2: "'frac' Diagonal Fractions in Latin lookup 0 subtable" one slash four
EndChar

StartChar: ordfeminine
Encoding: 105 170 316
Width: 928
VWidth: 0
Flags: W
LayerCount: 2
Fore
SplineSet
712 799 m 256
 853 799 963 931 1024 1016 c 257
 982.999 1207 l 257
 954 1168 926 1133 897 1102 c 256
 863 1064 807 996.999 739 996.999 c 256
 702 996.999 701 1041 701 1084 c 256
 701 1228 756 1346 756 1487 c 256
 756 1566 722 1567 650 1567 c 258
 642 1567 l 258
 580 1567 590 1632 530 1632 c 256
 490 1632 450 1623 412 1606 c 256
 229 1525 64 1308 64 1047 c 256
 64 910 147 802 281 802 c 256
 398 802 495 879 551 943 c 257
 581 869 621 799 712 799 c 256
353 968.999 m 256
 297 968.999 285 1027 285 1084 c 256
 285 1240 396 1467 554 1467 c 257
 501 1213 l 258
 484 1130 448 968.999 353 968.999 c 256
EndSplineSet
EndChar

StartChar: ordmasculine
Encoding: 121 186 317
Width: 799
VWidth: 0
Flags: W
LayerCount: 2
Fore
SplineSet
383 967 m 256
 289 967 258 1048 258 1143 c 256
 258 1265 317 1465 433 1465 c 256
 516 1465 534 1363 534 1277 c 256
 534 1168 485 967 383 967 c 256
355 801 m 256
 598 801 723 1057 723 1301 c 256
 723 1474 654 1631 483 1631 c 256
 239 1631 70 1425 70 1179 c 256
 70 979.999 155 801 355 801 c 256
EndSplineSet
EndChar

StartChar: oslash
Encoding: 183 248 318
Width: 944
VWidth: 0
Flags: W
LayerCount: 2
Fore
SplineSet
39 -144 m 256
 326 257 681 708 1185 1052 c 256
 1245 1093 1184 1207 1093 1143 c 256
 606 801 268 317 -14 -70 c 256
 -72 -150 6 -189 39 -144 c 256
EndSplineSet
Refer: 302 111 N 1 0 0 1 0 0 2
EndChar

StartChar: p
Encoding: 80 112 321
Width: 1018
VWidth: 0
Flags: W
PickledData: "(dp1
S'com.typemytype.robofont.layerData'
p2
(dp3
s."
LayerCount: 2
Fore
SplineSet
866 370 m 256
 1026 380 1308 561 1412 687 c 257
 1430 702 1439 724 1441 747 c 256
 1444 790 1421 835 1387 835 c 256
 1378 835 1368 831 1357 824 c 257
 1251 726 1050 566 936 566 c 256
 928 566 832 744 761 744 c 256
 746 744 731 737 720 720 c 257
 678 642 656 578 653 528 c 256
 645 416 726 361 866 370 c 256
-14 -701 m 256
 45 -701 139 -646 152 -599 c 257
 181 -515 262 -22 285 63 c 257
 339 11 398 -16 459 -16 c 256
 753 -16 956 330 976 616 c 256
 989 805 910 966 709 966 c 256
 297 966 200 568 104 254 c 256
 85 192 -44 -438 -55 -576 c 256
 -61 -643 -53 -701 -14 -701 c 256
467 182 m 256
 420 182 372 199 321 239 c 257
 366 386 414 774 649 774 c 256
 730 774 777 673 769 558 c 256
 756 382 627 182 467 182 c 256
EndSplineSet
Substitution2: "'fina' Terminal Forms in Latin lookup 5 subtable" p.fina
Substitution2: "'init' Initial Forms in Latin lookup 4 subtable" p.init
EndChar

StartChar: paragraph
Encoding: 117 182 322
Width: 1308
VWidth: 0
Flags: W
LayerCount: 2
Fore
SplineSet
589 -8 m 256
 647 -8 702 11 712 55 c 256
 742 188 763 330 788 466 c 256
 815 616 843 764 870 914 c 257
 921 921 987.999 925 1039 931 c 257
 988.999 673 959 390 914 127 c 257
 911 117 910 106 910 94.9999 c 256
 910 36 954 0 1011 0 c 256
 1093 0 1143 59 1161 126 c 256
 1253 464 1297 861 1358 1218 c 256
 1376 1324 1411 1426 1411 1519 c 256
 1411 1743 1100 1743 862 1743 c 258
 860 1743 l 258
 537 1743 95.9999 1616 95.9999 1295 c 256
 95.9999 1040 328 926 595 926 c 257
 550 638 499 392 471 114 c 257
 467 102 465 91 465 81 c 256
 465 18 526 -8 589 -8 c 256
EndSplineSet
EndChar

StartChar: parenleft
Encoding: 8 40 323
Width: 1377
VWidth: 0
Flags: W
LayerCount: 2
Fore
SplineSet
1040 -378 m 256
 1112 -378 1262 -371 1262 -282 c 256
 1262 -189 1147 -210 1034 -191 c 256
 741 -141 630 103 630 430 c 256
 630 866 846 1375 1258 1674 c 256
 1354 1744 1406 1804 1406 1854 c 256
 1406 1892 1380 1917 1335 1917 c 256
 1313 1917 1288 1911 1258 1898 c 256
 697 1643 374 1001 374 410 c 256
 374 -52 610 -378 1040 -378 c 256
EndSplineSet
EndChar

StartChar: parenright
Encoding: 9 41 324
Width: 1377
VWidth: 0
Flags: W
LayerCount: 2
Fore
SplineSet
345 -378 m 256
 884 -378 1218 130 1218 769 c 256
 1218 1244 1017 1694 612 1898 c 256
 585 1911 560 1917 538 1917 c 256
 489 1917 453 1886 453 1837 c 256
 453 1791 492 1736 564 1674 c 256
 834 1442 960 1085 960 733 c 256
 960 262 771 -129 392 -191 c 256
 278 -210 142 -187 142 -297 c 256
 142 -372 277 -378 345 -378 c 256
EndSplineSet
EndChar

StartChar: percent
Encoding: 5 37 327
Width: 2208
VWidth: 0
Flags: W
LayerCount: 2
Fore
SplineSet
827 112 m 258
 1599 1557 l 258
 1618 1591 1634 1619 1644 1670 c 256
 1659 1747 1553 1822 1463 1672 c 258
 682 366 l 258
 636 289 583 204 609 127 c 256
 642 21 773 13 827 112 c 258
455 672 m 256
 505 672 552 681 596 699 c 256
 802 784 950 1023 950 1312 c 256
 950 1554 837 1728 594 1728 c 256
 268 1728 93.9999 1446 93.9999 1120 c 256
 93.9999 877 213 672 455 672 c 256
1669 64 m 256
 1717 64 1762 73 1804 90 c 256
 2001 171 2146 398 2146 674 c 256
 2146 917 2049 1120 1808 1120 c 256
 1475 1120 1312 816 1312 482 c 256
 1312 247 1433 64 1669 64 c 256
473 864 m 256
 370 864 350 1031 350 1141 c 256
 350 1310 405 1536 568 1536 c 256
 677 1536 706 1425 706 1314 c 256
 706 1151 631 864 473 864 c 256
1687 256 m 256
 1590 256 1568 393 1568 494 c 256
 1568 671 1613 928 1782 928 c 256
 1886 928 1900 765 1900 656 c 256
 1900 508 1832 256 1687 256 c 256
EndSplineSet
EndChar

StartChar: period
Encoding: 14 46 328
Width: 882
VWidth: 0
Flags: W
LayerCount: 2
Fore
SplineSet
510 0.999999 m 256
 631 0.999999 701 79 701 196 c 256
 701 304 639 360 529 360 c 256
 409 360 342 283 342 166 c 256
 342 57 402 0.999999 510 0.999999 c 256
EndSplineSet
EndChar

StartChar: periodcentered
Encoding: 118 183 329
Width: 704
VWidth: 0
Flags: W
AnchorPoint: "mid" 0 181 mark 0
LayerCount: 2
Fore
SplineSet
614 0 m 256
 733 0 802 76 802 191 c 256
 802 297 741 353 633 353 c 256
 516 353 450 277 450 162 c 256
 450 55 508 0 614 0 c 256
EndSplineSet
EndChar

StartChar: perthousand
Encoding: 456 8240 330
Width: 3169
VWidth: 0
Flags: W
LayerCount: 2
Fore
SplineSet
672 0 m 256
 761 0 832 36 864 95.9999 c 256
 1117 566 1340 1109 1580 1592 c 256
 1598 1628 1613 1678 1613 1730 c 256
 1613 1764 1603 1792 1568 1792 c 256
 1472 1792 1405 1757 1372 1696 c 256
 1135 1252 894 781 664 332 c 256
 622 250 580 203 580 95.9999 c 256
 580 34 609 0 672 0 c 256
455 672 m 256
 505 672 552 681 596 699 c 256
 802 784 950 1023 950 1312 c 256
 950 1554 837 1728 594 1728 c 256
 268 1728 93.9999 1446 93.9999 1120 c 256
 93.9999 877 213 672 455 672 c 256
1669 64 m 256
 1717 64 1762 73 1804 90 c 256
 2001 171 2146 398 2146 674 c 256
 2146 917 2049 1120 1808 1120 c 256
 1475 1120 1312 816 1312 482 c 256
 1312 247 1433 64 1669 64 c 256
2597 64 m 256
 2645 64 2690 73 2732 90 c 256
 2929 171 3074 398 3074 674 c 256
 3074 917 2977 1120 2736 1120 c 256
 2403 1120 2240 816 2240 482 c 256
 2240 247 2361 64 2597 64 c 256
473 864 m 256
 370 864 350 1031 350 1141 c 256
 350 1310 405 1536 568 1536 c 256
 677 1536 706 1425 706 1314 c 256
 706 1151 631 864 473 864 c 256
1687 256 m 256
 1590 256 1568 393 1568 494 c 256
 1568 671 1613 928 1782 928 c 256
 1886 928 1900 765 1900 656 c 256
 1900 508 1832 256 1687 256 c 256
2615 256 m 256
 2518 256 2496 393 2496 494 c 256
 2496 671 2541 928 2710 928 c 256
 2814 928 2828 765 2828 656 c 256
 2828 508 2760 256 2615 256 c 256
EndSplineSet
EndChar

StartChar: plus
Encoding: 11 43 332
Width: 1503
VWidth: 0
Flags: W
LayerCount: 2
Fore
SplineSet
768 60 m 256
 834 60 865 124 865 193 c 258
 865 416 l 257
 1096 416 l 258
 1162 416 1215 460 1215 525 c 256
 1215 577 1174 608 1115 608 c 258
 865 608 l 257
 865 855 l 258
 865 914 834 955 782 955 c 256
 717 955 673 902 673 836 c 258
 673 608 l 257
 453 608 l 258
 384 608 320 577 320 511 c 256
 320 446 381 416 449 416 c 258
 673 416 l 257
 673 189 l 258
 673 121 703 60 768 60 c 256
EndSplineSet
EndChar

StartChar: plusminus
Encoding: 112 177 333
Width: 1503
VWidth: 0
Flags: W
LayerCount: 2
Fore
SplineSet
768 256 m 256
 834 256 865 320 865 389 c 258
 865 612 l 257
 1096 612 l 258
 1162 612 1215 656 1215 721 c 256
 1215 773 1174 804 1115 804 c 258
 865 804 l 257
 865 1051 l 258
 865 1110 834 1151 782 1151 c 256
 717 1151 673 1098 673 1032 c 258
 673 804 l 257
 453 804 l 258
 384 804 320 773 320 707 c 256
 320 642 381 612 449 612 c 258
 673 612 l 257
 673 385 l 258
 673 317 703 256 768 256 c 256
752 -22 m 256
 755 -22 758 -21 762 -21 c 258
 1197 21 l 258
 1264 26 1303 73 1303 117 c 256
 1303 156 1271 193 1199 193 c 256
 1196 193 1193 193 1190 193 c 258
 762 171 l 258
 695 168 665 121 665 74 c 256
 665 26 696 -22 752 -22 c 256
EndSplineSet
EndChar

StartChar: q
Encoding: 81 113 335
Width: 1089
VWidth: 0
Flags: W
LayerCount: 2
Fore
SplineSet
614 148 m 257
 185 68 287.539 814 645 814 c 256
 703.821 814 789 795 786 779 c 256
 768 692 687 351 614 148 c 257
863.503 209.038 m 258
 905.811 358.684 981 638 1009 787 c 256
 1025 867 831 979 630 979 c 257
 -48 954 -46 -136 580 -24 c 257
 525 -226 439 -492 369 -704 c 256
 342 -784 555.856 -885 593.523 -750 c 258
 863.503 209.038 l 258
841 205 m 257
 994 221 1276 510 1359 677 c 256
 1395 751 1291 843 1235 763 c 256
 1131 612 955 430 849 393 c 257
 527 546 514 1 841 205 c 257
EndSplineSet
EndChar

StartChar: question
Encoding: 31 63 336
Width: 1292
VWidth: 0
Flags: W
LayerCount: 2
Fore
SplineSet
541 700 m 256
 538 630 648 624 662 714 c 256
 696 928 1193 1024 1208 1444 c 256
 1224 1913 461 2076 277 1510 c 256
 250 1428 389 1362 417 1420 c 256
 574 1742 973 1707 963 1425 c 256
 961 1376 951 1333 930 1296 c 256
 817 1097 551 1004 541 700 c 256
558 0 m 256
 677 0 746 76 746 191 c 256
 746 297 685 353 577 353 c 256
 460 353 394 277 394 162 c 256
 394 55 452 0 558 0 c 256
EndSplineSet
EndChar

StartChar: questiondown
Encoding: 126 191 337
Width: 1292
VWidth: 0
Flags: W
LayerCount: 2
Fore
SplineSet
772 0 m 256
 913 0 1146 89 1146 232 c 256
 1146 292 1107 347 1048 347 c 256
 1018 347 995.999 332 980.999 312 c 256
 939 258 864 192 771 192 c 256
 673 192 638 256 638 357 c 256
 638 394 644 428 655 458 c 256
 743 689 1035 729 1035 1052 c 256
 1035 1098 992.999 1116 947 1116 c 256
 891 1116 863 1066 844 1018 c 256
 828 976.999 800 945 770 916 c 256
 604 754 394 668 394 338 c 256
 394 126 564 0 772 0 c 256
977.999 1249 m 256
 1095 1249 1161 1325 1161 1440 c 256
 1161 1547 1103 1602 996.999 1602 c 256
 878 1602 809 1526 809 1411 c 256
 809 1305 870 1249 977.999 1249 c 256
EndSplineSet
EndChar

StartChar: quotedbl
Encoding: 2 34 338
Width: 1184
VWidth: 0
Flags: W
LayerCount: 2
Fore
SplineSet
664 1135 m 256
 711 1135 746 1180 756 1230 c 256
 783 1373 802 1543 822 1747 c 256
 823 1752 823 1757 823 1762 c 256
 823 1825 776 1856 724 1856 c 256
 651 1856 576 1810 576 1728 c 256
 576 1559 584 1405 584 1233 c 256
 584 1177 613 1135 664 1135 c 256
310 1135 m 256
 352 1135 385 1180 392 1230 c 256
 410 1373 428 1577 428 1747 c 256
 428 1820 382 1856 320 1856 c 256
 257 1856 192 1810 192 1728 c 256
 192 1559 214 1383 230 1233 c 256
 237 1177 259 1135 310 1135 c 256
EndSplineSet
EndChar

StartChar: quotedblbase
Encoding: 451 8222 339
Width: 1025
VWidth: 0
Flags: W
LayerCount: 2
Fore
SplineSet
368 -191 m 256
 470 -191 514 -75 558 -8 c 256
 580 26 582 26 604 60 c 256
 631 102 671 143 671 205 c 256
 671 282 592 321 514 321 c 256
 445 321 392 291 377 237 c 256
 347 128 287 9.99999 287 -109 c 256
 287 -158 321 -191 368 -191 c 256
759 -191 m 256
 861 -191 906 -75 950 -8 c 258
 993.999 60 l 258
 1021 102 1062 143 1062 205 c 256
 1062 282 982.999 321 905 321 c 256
 836 321 783 291 768 237 c 256
 738 128 678 9.99999 678 -109 c 256
 678 -158 712 -191 759 -191 c 256
EndSplineSet
EndChar

StartChar: quotedblleft
Encoding: 449 8220 340
Width: 1184
VWidth: 0
Flags: W
LayerCount: 2
Fore
SplineSet
288 1184 m 256
 372 1184 456 1229 456 1312 c 256
 456 1463 488 1602 488 1757 c 256
 488 1813 459 1855 408 1855 c 256
 351 1855 313 1809 296 1760 c 256
 249 1629 160 1447 160 1293 c 256
 160 1219 215 1184 288 1184 c 256
672 1184 m 256
 756 1184 840 1229 840 1312 c 256
 840 1463 872 1602 872 1757 c 256
 872 1813 843 1855 792 1855 c 256
 735 1855 697 1809 680 1760 c 256
 633 1629 544 1447 544 1293 c 256
 544 1219 599 1184 672 1184 c 256
EndSplineSet
EndChar

StartChar: quotedblright
Encoding: 450 8221 341
Width: 1184
VWidth: 0
Flags: W
LayerCount: 2
Fore
SplineSet
240 1185 m 256
 297 1185 335 1231 352 1280 c 256
 399 1410 488 1593 488 1747 c 256
 488 1820 433 1856 360 1856 c 256
 277 1856 192 1810 192 1728 c 256
 192 1576 160 1438 160 1283 c 256
 160 1227 189 1185 240 1185 c 256
624 1185 m 256
 681 1185 719 1231 736 1280 c 256
 783 1410 872 1593 872 1747 c 256
 872 1820 817 1856 744 1856 c 256
 661 1856 576 1810 576 1728 c 256
 576 1576 544 1438 544 1283 c 256
 544 1227 573 1185 624 1185 c 256
EndSplineSet
EndChar

StartChar: quoteleft
Encoding: 446 8216 342
Width: 704
VWidth: 0
Flags: W
LayerCount: 2
Fore
SplineSet
288 1184 m 256
 352 1184 406 1230 416 1312 c 258
 468 1757 l 258
 469 1762 469 1767 469 1772 c 256
 469 1820 443 1855 408 1855 c 256
 356 1855 321 1809 306 1760 c 257
 259 1629 170 1447 170 1293 c 256
 170 1219 221 1184 288 1184 c 256
EndSplineSet
EndChar

StartChar: quoteright
Encoding: 447 8217 343
Width: 640
VWidth: 0
Flags: W
LayerCount: 2
Fore
SplineSet
270 1185 m 256
 312 1185 341 1221 352 1260 c 258
 498 1717 l 258
 502 1730 504 1743 504 1754 c 256
 504 1819 442 1856 390 1856 c 256
 322 1856 258 1810 252 1728 c 258
 220 1283 l 257
 220 1270 l 258
 220 1221 241 1185 270 1185 c 256
EndSplineSet
EndChar

StartChar: quotesinglbase
Encoding: 448 8218 344
Width: 609
VWidth: 0
Flags: W
LayerCount: 2
Fore
SplineSet
368 -191 m 256
 470 -191 514 -75 558 -8 c 256
 580 26 582 26 604 60 c 256
 631 102 671 143 671 205 c 256
 671 282 592 321 514 321 c 256
 445 321 392 291 377 237 c 256
 347 128 287 9.99999 287 -109 c 256
 287 -158 321 -191 368 -191 c 256
EndSplineSet
EndChar

StartChar: quotesingle
Encoding: 7 39 345
Width: 524
VWidth: 0
Flags: W
LayerCount: 2
Fore
SplineSet
176 1108 m 256
 242 1108 249 1129 306 1219 c 256
 346 1279 577 1576 577 1749 c 256
 577 1815 539 1861 434 1861 c 256
 302 1861 194 1362 128 1228 c 257
 121 1209 118 1188 118 1170 c 256
 118 1135 164 1108 176 1108 c 256
EndSplineSet
EndChar

StartChar: r
Encoding: 82 114 346
Width: 843
VWidth: 0
Flags: W
PickledData: "(dp1
S'com.typemytype.robofont.layerData'
p2
(dp3
s."
LayerCount: 2
Fore
SplineSet
218 0 m 256
 296 0 323 28 344 77 c 257
 502 510 667 747 661 734 c 256
 573 533 591 354 857 379 c 256
 969 390 1086 469 1155 533 c 256
 1198 573 1117 680 1072 654 c 256
 870 536 772 545 810 654 c 256
 880 855 901 963 735 963 c 256
 604 963 363 558 302 368 c 257
 331 522 389 763 413 860 c 256
 426 911 390 964 331 964 c 256
 260 964 222 929 192 833 c 256
 137 658 101 417 99 216 c 256
 98 107 109 0 218 0 c 256
EndSplineSet
EndChar

StartChar: registered
Encoding: 109 174 351
Width: 1760
VWidth: 0
Flags: W
LayerCount: 2
Fore
SplineSet
517 371 m 256
 707 371 762 639 807 800 c 257
 837 800 l 258
 945 800 820 387 1004 387 c 256
 1124 387 1226 466 1296 514 c 257
 1257 627 l 257
 1221 589 1161 532 1093 532 c 256
 1067 532 1064 563 1063 591 c 256
 1059 697 1056 775 977.999 809 c 257
 1132 817 1282 898 1282 1054 c 256
 1282 1202 1167 1279 1015 1279 c 256
 953 1279 893 1267 833 1267 c 256
 728 1267 688 1020 662 932 c 257
 645 932 624 940 607 940 c 256
 588 940 578 916 578 898 c 256
 578 865 606 851 633 835 c 257
 616 748 574 487 468 487 c 256
 450 487 434 492 423 500 c 257
 404 396 l 257
 430 377 475 371 517 371 c 256
850 202 m 256
 504 202 250 375 250 712 c 256
 250 766 258 820 273 875 c 256
 359 1183 630 1394 1026 1394 c 256
 1322 1394 1489 1222 1489 930 c 256
 1489 534 1252 202 850 202 c 256
855 38 m 256
 942 38 1023 50 1098 74 c 256
 1429 182 1682 487 1682 921 c 256
 1682 1330 1416 1557 1001 1557 c 256
 480 1557 71 1255 71 736 c 256
 71 291 398 38 855 38 c 256
889 916 m 256
 874 916 860 917 845 919 c 257
 864 990.999 881 1069 897 1143 c 257
 958 1143 l 258
 1038 1143 1103 1112 1103 1044 c 256
 1103 957 982.999 916 889 916 c 256
EndSplineSet
EndChar

StartChar: ring
Encoding: 403 730 352
Width: 737
VWidth: 0
Flags: W
PickledData: "(dp1
S'com.typemytype.robofont.layerData'
p2
(dp3
s."
LayerCount: 2
Fore
SplineSet
327 1222 m 256
 267 1222 230 1264 230 1324 c 256
 230 1419 307 1480 406 1480 c 256
 463 1480 493 1443 493 1389 c 256
 493 1297 422 1222 327 1222 c 256
327 1088 m 256
 508 1088 638 1216 638 1402 c 256
 638 1527 553 1609 431 1609 c 256
 258 1609 94.9999 1499 94.9999 1325 c 256
 94.9999 1179 186 1088 327 1088 c 256
EndSplineSet
EndChar

StartChar: s
Encoding: 83 115 353
Width: 856
VWidth: 0
Flags: W
PickledData: "(dp1
S'com.typemytype.robofont.layerData'
p2
(dp3
s."
LayerCount: 2
Fore
SplineSet
516 -16 m 256
 852 -16 1075 110 1181 279 c 256
 1225 349 1120 485 1065 418 c 256
 1028 374 917 227 777 183 c 257
 932 443 495 685 564 802 c 256
 671 984 437 1061 352 898 c 256
 298 788 73 349 8 236 c 257
 76 102 264 -16 516 -16 c 256
442 151 m 256
 381 153 318 193 266 231 c 257
 296 289 344 387 385 471 c 258
 459 624 l 257
 649 341 654 144 442 151 c 256
EndSplineSet
Substitution2: "'fina' Terminal Forms in Latin lookup 5 subtable" s.fina
Substitution2: "'init' Initial Forms in Latin lookup 4 subtable" s.init
EndChar

StartChar: scaron
Encoding: 288 353 355
Width: 865
VWidth: 0
Flags: W
LayerCount: 2
Fore
SplineSet
384 1019 m 256
 524 1019 556 1136 605 1233 c 258
 769 1562 l 258
 775 1575 776 1588 776 1600 c 256
 776 1643 748 1691 708 1691 c 256
 607 1691 579 1640 547 1563 c 256
 494 1437 449 1314 400 1183 c 257
 372 1297 368 1695 213 1695 c 256
 143 1695 98.9999 1651 98.9999 1582 c 256
 98.9999 1569 99.9999 1557 104 1547 c 256
 135 1446 164 1367 192 1269 c 256
 225 1156 245 1019 384 1019 c 256
560 -16 m 256
 883 -16 1109 130 1264 279 c 257
 1304 323 1239 485 1172 418 c 256
 1128 374 1006 257 858 213 c 257
 998.999 473 686 690 761 792 c 256
 860 928 671 1061 557 898 c 256
 484 788 181 349 95.9999 236 c 257
 239 20 458 -16 560 -16 c 256
515 151 m 256
 455 153 399 193 353 231 c 257
 433 346 616 624 616 624 c 257
 743 341 713 144 515 151 c 256
EndSplineSet
EndChar

StartChar: section
Encoding: 102 167 361
Width: 1440
VWidth: 0
Flags: W
LayerCount: 2
Fore
SplineSet
681 -117 m 256
 905 -117 1144 -21 1144 200 c 256
 1144 274 1123 330 1093 376 c 257
 1166 431 1228 507 1228 625 c 256
 1228 812 1062 903 938 970.999 c 256
 866 1011 647 1081 647 1185 c 256
 647 1270 739 1312 831 1312 c 256
 946 1312 1068 1261 1068 1148 c 256
 1068 1126 1058 1102 1058 1080 c 256
 1058 1031 1097 998.999 1144 998.999 c 256
 1221 998.999 1256 1070 1256 1151 c 256
 1256 1355 1064 1491 860 1491 c 256
 638 1491 396 1407 396 1197 c 256
 396 1113 437 1057 481 1011 c 257
 402 962 332 891 332 782 c 256
 332 651 424 579 509 528 c 256
 624 459 892 388 892 210 c 256
 892 110 788 62 687 62 c 256
 564 62 435 103 435 224 c 256
 435 276 453 315 453 357 c 256
 453 396 411 408 370 408 c 256
 281 408 224 317 224 223 c 256
 224 -12 444 -117 681 -117 c 256
955 514 m 257
 926 533 897 552 866 568 c 256
 790 608 555 676 555 787 c 256
 555 841 585 879 619 908 c 257
 663 883 708 858 754 836 c 256
 835 796 1006 733 1006 625 c 256
 1006 576 981.999 540 955 514 c 257
EndSplineSet
EndChar

StartChar: semicolon
Encoding: 27 59 362
Width: 768
VWidth: 0
Flags: W
LayerCount: 2
Fore
SplineSet
368 -191 m 256
 470 -191 514 -75 558 -8 c 256
 580 26 582 26 604 60 c 256
 631 102 671 143 671 205 c 256
 671 282 592 321 514 321 c 256
 445 321 392 291 377 237 c 256
 347 128 287 9.99999 287 -109 c 256
 287 -158 321 -191 368 -191 c 256
544 672 m 256
 663 672 732 748 732 863 c 256
 732 968.999 671 1025 563 1025 c 256
 446 1025 380 949 380 834 c 256
 380 727 438 672 544 672 c 256
EndSplineSet
EndChar

StartChar: seven
Encoding: 23 55 363
Width: 926
VWidth: 0
Flags: W
LayerCount: 2
Fore
SplineSet
231 -56 m 256
 311 -56 384 -29 410 50 c 256
 548 470 705 800 913 1131 c 257
 929 1159 1010 1181 1010 1252 c 256
 1010 1304 993.999 1343 944 1343 c 256
 921 1343 829 1333 787 1333 c 256
 573 1333 464 1379 272 1379 c 256
 191 1379 146 1273 146 1155 c 256
 146 1083 172 1024 214 1024 c 256
 291 1024 262 1159 335 1159 c 258
 667 1159 l 257
 477 866 107 271 107 49 c 256
 107 -18 168 -56 231 -56 c 256
EndSplineSet
EndChar

StartChar: six
Encoding: 22 54 364
Width: 1166
VWidth: 0
Flags: W
LayerCount: 2
Fore
SplineSet
551 -31 m 256
 860 -31 1113 184 1113 497 c 256
 1113 738 957 895 769 895 c 256
 627 895 533 842 456 786 c 257
 573 1019 735 1197 958 1328 c 256
 998.999 1353 1028 1387 1028 1436 c 256
 1028 1487 983.999 1521 921 1521 c 256
 887 1521 862 1510 832 1496 c 256
 481 1326 82 992.999 82 474 c 256
 82 156 263 -31 551 -31 c 256
556 156 m 256
 414 156 366 288 366 425 c 256
 366 602 431 717 623 717 c 256
 753 717 818 642 818 516 c 256
 818 352 722 156 556 156 c 256
EndSplineSet
EndChar

StartChar: slash
Encoding: 15 47 365
Width: 1248
VWidth: 0
Flags: W
LayerCount: 2
Fore
SplineSet
341 -33 m 256
 432 -33 482 2 514 64 c 256
 766 563 966 1119 1196 1622 c 256
 1212 1659 1248 1714 1248 1760 c 256
 1248 1814 1240 1856 1184 1856 c 256
 1059 1856 967.999 1782 928 1696 c 256
 720 1239 507 755 304 295 c 256
 266 210 222 152 222 55 c 256
 222 -18 269 -33 341 -33 c 256
EndSplineSet
EndChar

StartChar: sterling
Encoding: 98 163 367
Width: 1505
VWidth: 0
Flags: W
LayerCount: 2
Fore
SplineSet
842 -29 m 256
 957 -29 1086 -15 1191 -2 c 256
 1345 17 1589 3 1589 170 c 256
 1589 240 1503 272 1433 272 c 256
 1253 272 1132 215 936 215 c 257
 935 216 936 226 939 244 c 256
 964 412 992.999 593 1012 768 c 257
 1263 768 l 258
 1349 768 1422 787 1422 868 c 256
 1422 958 1352 991.999 1264 991.999 c 258
 1024 991.999 l 257
 1024 1251 1090 1470 1344 1470 c 256
 1442 1470 1502 1455 1502 1356 c 256
 1502 1301 1551 1266 1606 1266 c 256
 1678 1266 1712 1323 1712 1398 c 256
 1712 1620 1563 1714 1343 1714 c 256
 944 1714 768 1400 768 991.999 c 257
 656 991.999 l 258
 573 991.999 525 958 525 879 c 256
 525 816 565 768 632 768 c 258
 748 768 l 257
 733 610 682 445 666 292 c 257
 652 249 634 190 634 135 c 256
 634 15 717 -29 842 -29 c 256
EndSplineSet
EndChar

StartChar: t
Encoding: 84 116 369
Width: 762
VWidth: 0
Flags: W
PickledData: "(dp1
S'com.typemytype.robofont.layerData'
p2
(dp3
s."
LayerCount: 2
Fore
SplineSet
428 -9 m 256
 593 -9 742 62 904 243 c 256
 1003 352 860 450 801 383 c 256
 700 269 582 177 477 177 c 256
 324 177 351 526 378 722 c 257
 620 892 966 1246 994 1614 c 256
 1003 1720 948 1822 807 1824 c 256
 431 1829 199 1073 152 635 c 256
 118 311 178 -9 428 -9 c 256
119 492 m 256
 219 554 636 719 818 751 c 256
 907 766 872 911 773 890 c 256
 624 862 309 760 43 622 c 256
 -27 588 27 435 119 492 c 256
398 887 m 257
 438 1146 592 1583 770 1582 c 256
 789 1581 797 1563 793 1540 c 257
 763 1276 577 1082 398 887 c 257
EndSplineSet
Substitution2: "'fina' Terminal Forms in Latin lookup 5 subtable" t.fina
Substitution2: "'init' Initial Forms in Latin lookup 4 subtable" t.init
EndChar

StartChar: thorn
Encoding: 189 254 374
Width: 1023
VWidth: 0
Flags: W
LayerCount: 2
Fore
SplineSet
53 -693 m 256
 110 -693 133 -663 144 -615 c 257
 268 50 l 257
 340 24 429 0 522 0 c 258
 547 0 l 257
 608 24 680 53 723 95.9999 c 257
 923 142 1068 214 1197 331 c 257
 1120 496 l 257
 1031 407 929 352 819 288 c 257
 882 385 915 491 915 649 c 256
 915 813 829 960 666 960 c 256
 552 960 468 872 391 805 c 257
 486 1376 l 258
 488 1390 576 1391 576 1408 c 256
 576 1480 440 1561 367 1561 c 256
 320 1561 298 1521 288 1472 c 258
 256 1312 l 258
 222 1145 181 967.999 153 809 c 256
 136 714 122 631 110 560 c 256
 46 193 -66 -166 -66 -563 c 256
 -66 -624 -39 -692 20 -692 c 256
 31 -692 41 -693 53 -693 c 256
495 192 m 256
 426 192 362 208 307 225 c 257
 325 431 338 732 561 732 c 256
 648 732 691 692 691 607 c 256
 691 450 646 192 495 192 c 256
EndSplineSet
EndChar

StartChar: three
Encoding: 19 51 375
Width: 1129
VWidth: 0
Flags: W
LayerCount: 2
Fore
SplineSet
500 -18 m 256
 861 -18 1088 163 1088 452 c 256
 1088 641 961 793 758 845 c 257
 946 905 1064 1028 1064 1165 c 256
 1064 1351 925 1465 701 1465 c 256
 574 1465 219 1425 219 1213 c 256
 219 1173 248 1148 293 1148 c 256
 345 1148 441 1259 572 1259 c 256
 670 1259 732 1205 732 1119 c 256
 732 975 621 884 444 884 c 256
 371 884 325 856 325 812 c 256
 325 777 355 755 402 755 c 256
 620 755 757 640 757 456 c 256
 757 265 651 142 481 137 c 256
 325 132 227 201 227 317 c 256
 227 370 256 418 256 463 c 256
 256 507 224 534 173 534 c 256
 66 534 -1 452 -1 321 c 256
 -1 113 192 -18 500 -18 c 256
EndSplineSet
EndChar

StartChar: threequarters
Encoding: 125 190 376
Width: 1793
VWidth: 0
Flags: W
LayerCount: 2
Fore
SplineSet
1396 -45 m 256
 1451 -45 1513 -38 1569 -38 c 256
 1580 -38 1584 -37 1584 -28 c 256
 1584 28 1492 65 1492 130 c 258
 1492 149 l 257
 1495 190 1505 231 1514 269 c 257
 1570 267 1625 264 1680 264 c 256
 1727 264 1740 341 1740 397 c 256
 1740 418 1735 437 1716 437 c 256
 1664 437 1611 423 1558 414 c 257
 1584 493 1635 583 1635 674 c 256
 1635 718 1606 730 1555 730 c 256
 1485 730 1427 691 1411 633 c 256
 1389 555 1359 472 1334 391 c 257
 1321 391 l 258
 1282 391 1253 392 1210 394 c 257
 1296 587 1421 779 1421 1019 c 256
 1421 1050 1334 1052 1298 1052 c 256
 1229 1052 1124 1044 1112 991.999 c 256
 1061 764 1017 565 943 372 c 257
 918 335 885 287 885 237 c 256
 885 212 895 192 919 192 c 256
 1058 192 1146 273 1300 273 c 257
 1284 210 1265 140 1265 71 c 256
 1265 -18 1307 -45 1396 -45 c 256
316 850 m 256
 470 850 637 937 637 1085 c 256
 637 1230 546 1312 423 1338 c 257
 510 1362 593 1409 593 1511 c 256
 593 1634 465 1693 340 1693 c 256
 220 1693 101 1650 101 1531 c 256
 101 1485 112 1439 155 1439 c 256
 174 1439 240 1455 240 1472 c 256
 240 1490 202 1499 202 1522 c 256
 202 1552 238 1568 270 1568 c 256
 312 1568 332 1534 332 1492 c 256
 332 1426 272 1377 204 1377 c 256
 166 1377 151 1338 151 1300 c 256
 151 1277 173 1269 199 1267 c 256
 314 1255 383 1221 383 1094 c 256
 383 1030 326 982.999 262 982.999 c 256
 216 982.999 190 1013 190 1063 c 256
 190 1111 278 1108 278 1132 c 256
 278 1164 183 1181 146 1181 c 256
 76 1181 35 1145 35 1074 c 256
 35 912 150 850 316 850 c 256
487 231 m 256
 534 231 568 260 589 294 c 256
 791 620 972.999 965 1163 1288 c 256
 1183 1322 1201 1359 1201 1402 c 256
 1201 1450 1168 1472 1122 1472 c 256
 1066 1472 1013 1444 990.999 1408 c 256
 810 1113 635 788 466 484 c 256
 435 428 399 394 399 323 c 256
 399 269 436 231 487 231 c 256
EndSplineSet
Ligature2: "'frac' Diagonal Fractions in Latin lookup 0 subtable" three slash four
EndChar

StartChar: tilde
Encoding: 405 732 378
Width: 960
VWidth: 0
Flags: W
LayerCount: 2
Fore
SplineSet
706 2225 m 256
 824 2225 952 2372 952 2487 c 256
 952 2533 915 2560 869 2560 c 256
 770 2560 737 2451 688 2397 c 257
 638 2436 598 2469 566 2494 c 256
 507 2541 460 2593 370 2593 c 256
 252 2593 124 2446 124 2331 c 256
 124 2285 161 2258 207 2258 c 256
 302 2258 344 2366 388 2421 c 257
 438 2382 478 2349 510 2324 c 256
 569 2277 616 2225 706 2225 c 256
EndSplineSet
EndChar

StartChar: trademark
Encoding: 463 8482 379
Width: 2302
VWidth: 0
Flags: W
LayerCount: 2
Fore
SplineSet
873 380 m 256
 928 380 967.999 410 985.999 453 c 256
 1021 536 1054 635 1089 720 c 256
 1122 798 1211 1078 1306 1078 c 256
 1350 1078 1352 1016 1352 962 c 256
 1352 790 1270 626 1270 476 c 258
 1270 468 l 258
 1270 421 1295 380 1344 380 c 256
 1405 380 1450 408 1464 455 c 256
 1507 604 1587 1078 1777 1078 c 256
 1822 1078 1834 1040 1834 992.999 c 256
 1834 836 1748 715 1748 575 c 256
 1748 478 1799 400 1893 400 c 256
 2029 400 2114 485 2184 585 c 257
 2176 613 2150 729 2139 729 c 257
 2109 676 2015 540 1933 540 c 256
 1918 540 1910 551 1910 574 c 256
 1910 585 1914 606 1923 638 c 256
 1955 756 1992 905 1992 1056 c 256
 1992 1182 1942 1266 1814 1266 c 256
 1621 1266 1540 1024 1492 864 c 257
 1500 1014 l 258
 1501 1020 1501 1026 1501 1032 c 258
 1501 1050 l 258
 1501 1166 1460 1266 1356 1266 c 256
 1309 1266 1276 1245 1244 1218 c 256
 1092 1090 1019 866 947 647 c 257
 929 655 l 257
 975.999 803 1025 962 1072 1119 c 256
 1073 1125 1075 1131 1075 1138 c 256
 1075 1182 1039 1219 994.999 1219 c 256
 991.999 1219 986.999 1218 981.999 1217 c 256
 979.999 1217 978.999 1217 977.999 1218 c 256
 895 1249 804 1266 700 1266 c 256
 424 1266 116 1245 116 973.999 c 256
 116 920 146 880 204 880 c 256
 271 880 321 914 321 973.999 c 256
 321 1093 470 1102 578 1114 c 257
 556 1059 533 1002 508 941 c 256
 453 808 367 639 367 474 c 256
 367 421 394 390 443 390 c 256
 499 390 537 457 550 505 c 256
 602 693 651 906 714 1114 c 257
 774 1108 841 1087 897 1076 c 257
 884 868 762 712 762 493 c 256
 762 426 809 380 873 380 c 256
EndSplineSet
EndChar

StartChar: two
Encoding: 18 50 380
Width: 1101
VWidth: 0
Flags: W
LayerCount: 2
Fore
SplineSet
295 0.999999 m 256
 417 0.999999 511 65 590 131 c 257
 659 76 744 0.999999 856 0.999999 c 256
 987.999 0.999999 1030 120 1030 221 c 256
 1030 257 1022 284 994.999 284 c 256
 959 284 942 229 895 229 c 256
 825 229 774 248 725 276 c 257
 835 422 968.999 649 968.999 895 c 256
 968.999 1172 787 1333 536 1333 c 256
 316 1333 82 1187 82 960 c 256
 82 832 126 747 242 747 c 256
 302 747 368 792 368 840 c 256
 368 896 320 892 320 967.999 c 256
 320 1068 406 1135 511 1135 c 256
 658 1135 710 1025 710 891 c 256
 710 720 631 511 549 422 c 257
 465 475 370 520 236 520 c 256
 90 520 -4 420 -4 276 c 256
 -4 114 136 0.999999 295 0.999999 c 256
268 181 m 256
 204 181 170 227 170 269 c 256
 170 303 193 334 240 334 c 256
 307 334 406 301 425 290 c 257
 378 221 317 181 268 181 c 256
EndSplineSet
EndChar

StartChar: u
Encoding: 85 117 382
Width: 1015
VWidth: 0
Flags: W
PickledData: "(dp1
S'com.typemytype.robofont.layerData'
p2
(dp3
s."
AnchorPoint: "ogonek" 819 0 basechar 0
LayerCount: 2
Fore
SplineSet
282 -13 m 256
 479 -33 608 154 644 251 c 257
 636 161 l 257
 637 41 695 -16 819 -12 c 256
 960 -7 1207 151 1279 283 c 257
 1285 326 1218 384 1170 384 c 256
 1149 384 1145 375 1121 353 c 256
 1089 323 965 192 878 186 c 256
 851 184 829 205 838 286 c 256
 866 531 946 791 970 869 c 256
 984 915 929 964 876 964 c 256
 809 964 774 953 736 816 c 258
 654 523 l 258
 583 269 428 154 330 184 c 256
 287 197 278 244 285 313 c 256
 303 502 410 838 414 888 c 256
 418 934 376 964 317 964 c 256
 270 964 237 955 213 915 c 256
 182 864 105 602 76 330 c 256
 56 142 95 6 282 -13 c 256
EndSplineSet
EndChar

StartChar: underscore
Encoding: 63 95 390
Width: 1248
VWidth: 0
Flags: W
LayerCount: 2
Fore
SplineSet
128 0 m 258
 1020 0 l 258
 1156 0 1266 33 1266 163 c 256
 1266 210 1233 225 1184 225 c 258
 853 225 l 258
 737 225 609 224 496 224 c 258
 236 224 l 258
 124 224 -6 218 -6 108 c 256
 -6 34 55 0 128 0 c 258
EndSplineSet
EndChar

StartChar: uni00B2
Encoding: 113 178 393
Width: 991
VWidth: 0
Flags: W
LayerCount: 2
Fore
SplineSet
276 609 m 256
 379 609 461 654 528 702 c 257
 591 662 673 609 765 609 c 256
 895 609 947 732 947 854 c 256
 947 881 926 881 895 881 c 256
 860 881 839 796 796 796 c 256
 741 796 697 805 657 821 c 257
 735 912 834 1052 834 1206 c 256
 834 1420 673 1535 464 1535 c 256
 288 1535 78 1439 78 1271 c 256
 78 1208 110 1168 150 1137 c 257
 162 1137 169 1136 175 1127 c 257
 229 1127 412 1149 412 1195 c 256
 412 1225 323 1227 323 1268 c 256
 323 1330 382 1364 445 1364 c 256
 539 1364 570 1290 570 1191 c 256
 570 1084 512 985.999 461 920 c 257
 393 951 321 975.999 220 975.999 c 256
 109 975.999 37 897 37 789 c 256
 37 675 158 609 276 609 c 256
263 774 m 256
 240 774 207 791 207 813 c 256
 207 835 247 838 279 838 c 256
 307 838 332 824 354 813 c 257
 319 787 288 774 263 774 c 256
EndSplineSet
EndChar

StartChar: uni00B3
Encoding: 114 179 394
Width: 768
VWidth: 0
Flags: W
LayerCount: 2
Fore
SplineSet
347 724 m 256
 501 724 668 811 668 959 c 256
 668 1104 577 1186 454 1212 c 257
 541 1236 624 1283 624 1385 c 256
 624 1508 496 1567 371 1567 c 256
 251 1567 132 1524 132 1405 c 256
 132 1359 143 1313 186 1313 c 256
 205 1313 271 1329 271 1346 c 256
 271 1364 233 1373 233 1396 c 256
 233 1426 269 1442 301 1442 c 256
 343 1442 363 1408 363 1366 c 256
 363 1300 303 1251 235 1251 c 256
 197 1251 182 1212 182 1174 c 256
 182 1151 204 1143 230 1141 c 256
 345 1129 414 1095 414 967.999 c 256
 414 904 357 857 293 857 c 256
 247 857 221 887 221 937 c 256
 221 984.999 309 981.999 309 1006 c 256
 309 1038 214 1055 177 1055 c 256
 107 1055 66 1019 66 948 c 256
 66 786 181 724 347 724 c 256
EndSplineSet
EndChar

StartChar: mu
Encoding: 116 181 395
Width: 962
VWidth: 0
Flags: W
LayerCount: 2
Fore
SplineSet
128 -256 m 256
 286 -256 277 -76 293 72 c 257
 311 64 330 60 350 60 c 256
 452 60 528 143 577 215 c 257
 598 118 630 9.99999 745 9.99999 c 256
 935 9.99999 1115 133 1216 234 c 257
 1216 273 1215 305 1215 342 c 256
 1215 380 1214 414 1214 454 c 257
 1149 370 987.999 223 845 223 c 256
 795 223 792 275 792 327 c 258
 792 352 l 258
 792 531 876 708 876 895 c 256
 876 941 818 959 765 959 c 256
 716 959 652 939 644 902 c 258
 545 394 l 258
 530 319 483 225 396 225 c 256
 353 225 338 274 338 318 c 256
 338 319 339 329 342 349 c 256
 370 533 404 733 435 917 c 257
 435 920 l 258
 435 951 377 959 336 959 c 256
 224 959 203 932 181 842 c 256
 111 553 32 205 32 -128 c 256
 32 -208 52 -256 128 -256 c 256
EndSplineSet
EndChar

StartChar: uni00B9
Encoding: 120 185 396
Width: 704
VWidth: 0
Flags: W
LayerCount: 2
Fore
SplineSet
361 704 m 256
 516 704 532 1068 552 1175 c 256
 575 1299 608 1395 608 1497 c 256
 608 1563 552 1600 486 1600 c 256
 392 1600 288 1554 230 1540 c 256
 157 1522 55 1515 55 1440 c 256
 55 1394 90 1347 136 1347 c 256
 141 1347 146 1349 152 1350 c 257
 153 1350 l 257
 365 1406 l 257
 325 1223 285 1026 246 837 c 257
 247 837 l 257
 245 824 242 813 242 800 c 256
 242 731 292 704 361 704 c 256
EndSplineSet
EndChar

StartChar: uni2074
Encoding: 460 8308 474
Width: 927
VWidth: 0
Flags: W
LayerCount: 2
Fore
SplineSet
597 -45 m 256
 652 -45 714 -38 770 -38 c 256
 781 -38 785 -37 785 -28 c 256
 785 28 693 65 693 130 c 258
 693 149 l 257
 696 190 706 231 715 269 c 257
 771 267 826 264 881 264 c 256
 928 264 941 341 941 397 c 256
 941 418 936 437 917 437 c 256
 865 437 812 423 759 414 c 257
 785 493 836 583 836 674 c 256
 836 718 807 730 756 730 c 256
 686 730 628 691 612 633 c 256
 590 555 560 472 535 391 c 257
 522 391 l 258
 483 391 454 392 411 394 c 257
 497 587 622 779 622 1019 c 256
 622 1050 535 1052 499 1052 c 256
 430 1052 325 1044 313 991.999 c 256
 262 764 218 565 144 372 c 257
 119 335 86 287 86 237 c 256
 86 212 95.9999 192 120 192 c 256
 259 192 347 273 501 273 c 257
 485 210 466 140 466 71 c 256
 466 -18 508 -45 597 -45 c 256
EndSplineSet
EndChar

StartChar: uniFB00
Encoding: 482 64256 480
Width: 1393
VWidth: 0
Flags: W
LayerCount: 2
Fore
SplineSet
270 -604 m 256
 530 -604 633 -320 633 -119 c 256
 633 99.9999 570 281 514 427 c 257
 600 429 702 435 780 460 c 257
 776 324 770 189 770 52 c 256
 770 -189 811 -455 1016 -455 c 256
 1256 -455 1300 -228 1300 -79 c 256
 1300 124 1231 292 1171 427 c 257
 1397 436 1704 461 1704 722 c 256
 1704 761 1691 791 1668 791 c 256
 1662 791 1656 790 1650 785 c 256
 1490 667 1408 587 1216 587 c 256
 1177 587 1131 593 1102 603 c 257
 1307 799 1659 1149 1659 1474 c 256
 1659 1612 1584 1706 1459 1706 c 256
 1079 1706 878 1127 795 626 c 257
 721 602 664 587 559 587 c 256
 520 587 474 593 445 603 c 257
 642 833 981.999 1243 981.999 1624 c 256
 981.999 1762 907 1856 782 1856 c 256
 226 1856 34 521 34 -38 c 256
 34 -276 62 -604 270 -604 c 256
302 -379 m 256
 263 -379 259 -187 259 -47 c 256
 259 144 277 330 286 522 c 257
 358 384 422 187 422 -57 c 258
 422 -62 l 258
 422 -173 421 -379 302 -379 c 256
1019 -229 m 256
 960 -229 952 51 952 271 c 256
 952 370 954 438 953 502 c 257
 969.999 474 1107 148 1107 -64 c 256
 1107 -159 1085 -229 1019 -229 c 256
330 686 m 257
 356 775 516 1631 745 1631 c 256
 786 1631 795 1583 795 1529 c 256
 795 1266 486 879 330 686 c 257
986.999 686 m 257
 1013 760 1179 1482 1412 1482 c 256
 1455 1482 1474 1454 1474 1414 c 256
 1474 1227 1135 794 986.999 686 c 257
EndSplineSet
Ligature2: "'dlig' Discretionary Ligatures in Latin lookup 6 subtable" f f
Substitution2: "'fina' Terminal Forms in Latin lookup 5 subtable" uniFB00.fina
EndChar

StartChar: uniFB01
Encoding: 483 64257 481
Width: 1260
VWidth: 0
Flags: W
LayerCount: 2
Fore
SplineSet
333 -604 m 256
 571 -604 666 -267 666 -29 c 256
 666 142 597 283 535 397 c 257
 652 399 759 421 854 455 c 257
 837 376 819 286 819 201 c 256
 819 71 874 0 1005 0 c 256
 1189 0 1359 121 1459 213 c 257
 1459 416 l 257
 1381 352 1257 192 1126 192 c 256
 1080 192 1075 240 1075 290 c 256
 1075 514 1209 695 1209 903 c 256
 1209 945 1185 960 1137 960 c 256
 1058 960 971.999 927 955 863 c 258
 912 694 l 257
 825 633 709 587 560 587 c 256
 532 587 524 603 494 603 c 256
 471 603 464 598 443 587 c 257
 445 603 l 257
 571 763 687 952 780 1144 c 256
 846 1281 929 1442 929 1624 c 256
 929 1762 850 1856 717 1856 c 256
 497 1856 390 1625 323 1454 c 256
 165 1053 68 494 68 -38 c 256
 68 -276 98.9999 -604 333 -604 c 256
354 -379 m 256
 300 -379 293 -187 293 -47 c 256
 293 -5 294 33 294 59 c 256
 294 110 308 442 335 442 c 256
 343 442 352 433 361 415 c 256
 421 300 457 107 457 -57 c 256
 457 -167 458 -379 354 -379 c 256
399 816 m 257
 435 1100 482 1295 578 1533 c 256
 600 1589 621 1631 691 1631 c 256
 736 1631 747 1583 747 1529 c 256
 747 1504 737 1467 716 1418 c 256
 629 1216 504 1013 399 816 c 257
1184 1089 m 256
 1300 1089 1378 1155 1378 1268 c 256
 1378 1366 1306 1408 1208 1408 c 256
 1098 1408 1012 1345 1012 1241 c 256
 1012 1140 1077 1089 1184 1089 c 256
EndSplineSet
Ligature2: "'dlig' Discretionary Ligatures in Latin lookup 6 subtable" f i
EndChar

StartChar: uniFB02
Encoding: 484 64258 482
Width: 1257
VWidth: 0
Flags: W
LayerCount: 2
Fore
SplineSet
333 -604 m 256
 571 -604 666 -267 666 -29 c 256
 666 142 597 283 535 397 c 257
 641 402 737 417 826 446 c 257
 843 283 902 0 1074 0 c 256
 1097 0 1121 4 1147 9.99999 c 256
 1313 50 1438 137 1563 227 c 257
 1481 437 l 257
 1435 400 1391 368 1349 340 c 256
 1296 305 1222 244 1141 244 c 256
 1087 244 1068 449 1068 545 c 257
 1248 738 1514 1097 1514 1464 c 256
 1514 1580 1485 1690 1370 1690 c 256
 1022 1690 840 969.999 820 642 c 257
 733 602 567 587 468 587 c 258
 443 587 l 257
 445 603 l 257
 571 763 687 952 780 1144 c 256
 846 1281 929 1442 929 1624 c 256
 929 1762 850 1856 717 1856 c 256
 497 1856 390 1625 323 1454 c 256
 165 1053 68 494 68 -38 c 256
 68 -276 98.9999 -604 333 -604 c 256
354 -379 m 256
 300 -379 293 -187 293 -47 c 256
 293 -5 294 33 294 59 c 256
 294 110 308 442 335 442 c 256
 343 442 352 433 361 415 c 256
 421 300 457 107 457 -57 c 258
 457 -63 l 258
 457 -175 456 -379 354 -379 c 256
399 816 m 257
 435 1100 482 1295 578 1533 c 256
 600 1589 621 1631 691 1631 c 256
 736 1631 747 1583 747 1529 c 256
 747 1504 737 1467 716 1418 c 256
 629 1216 504 1013 399 816 c 257
1051 755 m 257
 1070 918 1169 1436 1284 1436 c 256
 1311 1436 1320 1415 1320 1385 c 256
 1320 1229 1059 768 1051 755 c 257
EndSplineSet
Ligature2: "'dlig' Discretionary Ligatures in Latin lookup 6 subtable" f l
EndChar

StartChar: v
Encoding: 86 118 488
Width: 924
VWidth: 0
Flags: W
LayerCount: 2
Fore
SplineSet
430 -8 m 256
 661 115 873 431 977 848 c 256
 1027 1051 647 1023 673 529 c 257
 559 278 422 191 422 191 c 257
 415 191 304 405 400 857 c 256
 421 958 230 1021 189 885 c 256
 4 277 240 -109 430 -8 c 256
1391 733 m 256
 1433 810 1326 921 1268 843 c 256
 1147 680 940 578 736 605 c 257
 714 449 l 257
 923 369 1290 549 1391 733 c 256
EndSplineSet
EndChar

StartChar: w
Encoding: 87 119 489
Width: 1685
VWidth: 0
Flags: W
PickledData: "(dp1
S'com.typemytype.robofont.layerData'
p2
(dp3
s."
LayerCount: 2
Fore
SplineSet
1454 544 m 257
 1368 361 1198 170 1075 156 c 256
 960 143 893 306 995 530 c 257
 1074 715 1222 927 988 926 c 256
 913 925 763 584 754 329 c 256
 749 187 826 -49 1063 -38 c 256
 1269 -28 1485 156 1639 455 c 257
 1852 872 1726 1107 1504 1115 c 257
 1502 1115 l 258
 1004 1115 1237 64 2068 576 c 256
 2157 631 2096 768 1997 709 c 257
 1426 318 1353 952 1498 952 c 256
 1580 952 1633 851 1454 544 c 257
893 819 m 257
 789 588 l 258
 684 354 588 159 473 156 c 256
 372 153 346 271 361 401 c 256
 383 604 531 852 545 872 c 256
 584 929 435 1070 328 908 c 256
 291 851 149 585 145 344 c 256
 140 88 266 -38 458 -38 c 257
 700 -27 843 238 995 531 c 257
 893 819 l 257
EndSplineSet
Substitution2: "'fina' Terminal Forms in Latin lookup 5 subtable" w.fina
EndChar

StartChar: x
Encoding: 88 120 494
Width: 955
VWidth: 0
Flags: W
LayerCount: 2
Fore
SplineSet
1108 794 m 256
 1160 983 901 1049 770 883 c 258
 423 441 l 258
 318 308 226 211 155 162 c 256
 31 78 203 -139 301 10 c 256
 369 113 436 211 520 321 c 258
 834 734 l 258
 932 863 1078 683 1108 794 c 256
741 -14 m 256
 1024 -96 1136 197 1196 300 c 256
 1254 399 1164 506 1087 400 c 256
 1036 332 948 155 824 155 c 256
 684 155 585 367 250 940 c 256
 218 993 56 921 111 825 c 256
 413 302 511 53 741 -14 c 256
EndSplineSet
EndChar

StartChar: y
Encoding: 89 121 495
Width: 1013
VWidth: 0
Flags: W
PickledData: "(dp1
S'com.typemytype.robofont.layerData'
p2
(dp3
s."
LayerCount: 2
Fore
SplineSet
178 -928 m 256
 617 -928 734 -460 801 -108 c 257
 994 21 1224 148 1373 235 c 256
 1501 310 1402 458 1317 413 c 256
 1221 362 961 197 833 101 c 257
 851 214 873 313 891 412 c 256
 916 553 976.999 718 976.999 853 c 256
 976.999 893 932 909 889 909 c 256
 813 909 776 857 754 779 c 258
 669 474 l 258
 633 345 555 190 438 179 c 256
 342 170 326 260 326 324 c 256
 326 454 363 584 398 692 c 256
 419 751 456 793 456 852 c 256
 456 900 408 924 375 924 c 256
 320 924 257 881 230 832 c 256
 148 677 91 513 91 281 c 256
 91 123 196 -2 346 -2 c 256
 445 -2 595 93 667 225 c 257
 578 -28 l 257
 424 -144 256 -237 132 -378 c 256
 54 -466 -64 -588 -64 -729 c 256
 -64 -870 31 -928 178 -928 c 256
191 -756 m 256
 162 -752 148 -724 148 -699 c 256
 148 -599 375.765 -340 544 -236 c 257
 510 -397 393 -786 191 -756 c 256
EndSplineSet
Substitution2: "'fina' Terminal Forms in Latin lookup 5 subtable" y.fina
EndChar

StartChar: yen
Encoding: 100 165 499
Width: 1793
VWidth: 0
Flags: W
LayerCount: 2
Fore
SplineSet
557 0.999999 m 256
 813 0.999999 882 186 945 385 c 257
 1191 385 l 258
 1283 385 1376 397 1376 481 c 256
 1376 536 1295 545 1239 545 c 258
 1007 545 l 257
 1042 641 l 257
 1216 641 l 258
 1309 641 1408 652 1408 737 c 256
 1408 793 1323 801 1266 801 c 258
 1148 801 l 257
 1276 979.999 1416 1160 1540 1332 c 256
 1592 1404 1660 1471 1660 1570 c 256
 1660 1631 1616 1657 1555 1657 c 256
 1498 1657 1446 1637 1423 1603 c 256
 1264 1364 1106 1111 940 869 c 257
 920 980.999 898 1087 874 1186 c 256
 828 1378 752 1691 533 1691 c 256
 504 1691 471 1685 435 1672 c 256
 288 1620 174 1513 78 1400 c 257
 124 1352 157 1307 203 1279 c 257
 277 1357 382 1472 480 1472 c 256
 500 1472 518 1463 536 1446 c 256
 668 1316 702 1018 743 801 c 257
 594 801 l 258
 525 801 448 793 448 731 c 256
 448 660 517 641 594 641 c 258
 749 641 l 257
 725 545 l 257
 589 545 l 258
 521 545 448 536 448 475 c 256
 448 405 514 385 589 385 c 258
 683 385 l 257
 668 333 633 187 600 187 c 256
 558 187 533 213 484 213 c 256
 439 213 414 154 414 108 c 256
 414 36 484 0.999999 557 0.999999 c 256
EndSplineSet
EndChar

StartChar: z
Encoding: 90 122 501
Width: 689
VWidth: 0
Flags: W
PickledData: "(dp1
S'com.typemytype.robofont.layerData'
p2
(dp3
s."
LayerCount: 2
Fore
SplineSet
868 191 m 256
 934 240 889 368 846 343 c 256
 404 81 210 156 210 245 c 257
 269 298 641 631 699 692 c 256
 743 739 745 805 745 846 c 256
 745 888 704 927 643 927 c 256
 594 927 318 924 147 924 c 256
 20 924 86 746 126 746 c 256
 203 746 405 758 554 768 c 257
 117 401 l 258
 79 369 25 312 11 247 c 256
 -49 -36 431 -137 868 191 c 256
EndSplineSet
EndChar

StartChar: zcaron
Encoding: 317 382 503
Width: 743
VWidth: 0
Flags: W
LayerCount: 2
Fore
SplineSet
166 -2 m 256
 206 -2 245 46 272 70 c 257
 346 38 435 -2 524 -2 c 256
 685 -2 1007 96.9999 1007 261 c 256
 1007 298 981.999 329 945 329 c 256
 919 329 894 322 870 308 c 256
 789 260 715 190 586 190 c 256
 506 190 421 235 355 235 c 257
 360 255 l 257
 483 402 644 561 743 729 c 257
 806 745 829 761 829 831 c 256
 829 893 808 924 747 924 c 256
 698 924 645 912 591 912 c 256
 465 912 390 983.999 265 983.999 c 256
 149 983.999 125 880 125 758 c 256
 125 731 130 705 154 705 c 256
 231 705 282 742 369 742 c 256
 402 742 441 738 484 729 c 257
 143 251 l 258
 115 211 49 192 49 127 c 256
 49 51 90 -2 166 -2 c 256
383 1106 m 256
 523 1106 555 1223 604 1320 c 258
 768 1649 l 258
 774 1662 775 1675 775 1687 c 256
 775 1730 747 1778 707 1778 c 256
 606 1778 578 1727 546 1650 c 256
 493 1524 448 1401 399 1270 c 257
 371 1384 367 1782 212 1782 c 256
 142 1782 97.9999 1738 97.9999 1669 c 256
 97.9999 1656 98.9999 1644 103 1634 c 256
 134 1533 163 1454 191 1356 c 256
 224 1243 244 1106 383 1106 c 256
EndSplineSet
EndChar

StartChar: zero
Encoding: 16 48 505
Width: 1203
VWidth: 0
Flags: W
LayerCount: 2
Fore
SplineSet
515 189 m 256
 396 189 382 386 382 505 c 256
 382 724 458 1230 697 1230 c 256
 831 1230 852 1058 852 939 c 256
 852 726 755 189 515 189 c 256
492 -19 m 256
 935 -19 1170 465 1170 902 c 256
 1170 1210 1028 1448 703 1448 c 256
 263 1448 44 985.999 44 552 c 256
 44 252 176 -19 492 -19 c 256
EndSplineSet
EndChar

